<svg xmlns="http://www.w3.org/2000/svg" viewBox="0 0 32 32">
  <path fill="#fff" d="M25.333 0H6.667A6.667 6.667 0 0 0 0 6.667v18.666A6.667 6.667 0 0 0 6.667 32h18.666A6.667 6.667 0 0 0 32 25.333V6.667A6.667 6.667 0 0 0 25.333 0Zm-.185 12.316A12.447 12.447 0 0 1 6 23.369a8.806 8.806 0 0 0 6.48-1.812 4.38 4.38 0 0 1-4.088-3.04 4.4 4.4 0 0 0 1.976-.075A4.381 4.381 0 0 1 6.856 14.1a4.355 4.355 0 0 0 1.981.548A4.385 4.385 0 0 1 7.483 8.8a12.427 12.427 0 0 0 9.017 4.573 4.379 4.379 0 0 1 7.459-3.991 8.778 8.778 0 0 0 2.781-1.061 4.395 4.395 0 0 1-1.924 2.421 8.771 8.771 0 0 0 2.513-.689 8.88 8.88 0 0 1-2.185 2.263Z"/>
</svg>
