<svg xmlns="http://www.w3.org/2000/svg" viewBox="0 0 28 32">
  <path fill="#fff" fill-rule="evenodd" d="M24.72 0A3.288 3.288 0 0 1 28 3.3V32l-3.44-3.04-1.936-1.792-2.048-1.9.848 2.96H3.28a3.288 3.288 0 0 1-3.28-3.3V3.3A3.288 3.288 0 0 1 3.28 0h21.44Zm-6.176 20.9a5.849 5.849 0 0 0 4.9-2.432 21.426 21.426 0 0 0-2.3-9.328 7.912 7.912 0 0 0-4.5-1.68l-.224.256a10.648 10.648 0 0 1 3.98 2.028 13.043 13.043 0 0 0-4.816-1.536 13.538 13.538 0 0 0-3.232.032l-.272.032A12.015 12.015 0 0 0 8.448 9.28c-.592.272-.944.464-.944.464a10.794 10.794 0 0 1 4.208-2.1l-.16-.192a7.912 7.912 0 0 0-4.5 1.68 21.426 21.426 0 0 0-2.3 9.328 5.8 5.8 0 0 0 4.88 2.432s.592-.72 1.072-1.328A4.976 4.976 0 0 1 7.9 17.68l.448.272.068.048.063.036.019.008.063.036a9.377 9.377 0 0 0 1.168.544 13.431 13.431 0 0 0 2.352.688 11.208 11.208 0 0 0 4.144.016 10.531 10.531 0 0 0 2.32-.688 9.156 9.156 0 0 0 1.84-.944 5.049 5.049 0 0 1-2.9 1.9 75.988 75.988 0 0 0 1.059 1.304ZM11.1 13.424a1.782 1.782 0 0 0 0 3.552 1.7 1.7 0 0 0 1.636-1.776 1.694 1.694 0 0 0-1.636-1.776Zm5.84 0a1.782 1.782 0 1 0 1.636 1.776 1.7 1.7 0 0 0-1.632-1.776Z"/>
</svg>
