<?xml version="1.0" encoding="utf-8"?>
<!-- Generator: Adobe Illustrator 17.0.0, SVG Export Plug-In . SVG Version: 6.00 Build 0)  -->
<!DOCTYPE svg PUBLIC "-//W3C//DTD SVG 1.1//EN" "http://www.w3.org/Graphics/SVG/1.1/DTD/svg11.dtd">
<svg version="1.1" xmlns="http://www.w3.org/2000/svg" xmlns:xlink="http://www.w3.org/1999/xlink" x="0px" y="0px" width="32px"
	 height="32px" viewBox="0 0 32 32" style="enable-background:new 0 0 32 32;" xml:space="preserve">
<style type="text/css">
	.st0{fill-rule:evenodd;clip-rule:evenodd;}
	.st1{fill:#FFFFFF;}
</style>
<g id="Layer_3">
	<g>
		<g>
			<path d="M17.6,6.8v18.5L10.2,21l-5.1-0.7c-0.6,0-1.1-0.5-1.1-1.2v-6.3c0-0.7,0.5-1.2,1.1-1.2l5.1-0.7L17.6,6.8 M17.6,4.8
				c-0.3,0-0.7,0.1-1,0.3L9.5,9.1L4.9,9.7C3.3,9.8,2,11.2,2,12.9v6.3c0,1.7,1.3,3.1,2.9,3.2l4.6,0.6l7.1,4.1c0.3,0.2,0.7,0.3,1,0.3
				c0.3,0,0.7-0.1,1-0.3c0.6-0.4,1-1,1-1.7V6.8c0-0.7-0.4-1.4-1-1.7C18.3,4.8,17.9,4.8,17.6,4.8L17.6,4.8z"/>
		</g>
		<g>
			<path d="M23.7,25.6c-0.4,0-0.7-0.2-0.9-0.6c-0.2-0.5,0-1.1,0.5-1.3c2.9-1.4,4.7-4.4,4.7-7.7s-1.8-6.3-4.7-7.7
				c-0.5-0.2-0.7-0.8-0.5-1.3c0.2-0.5,0.8-0.7,1.3-0.5C27.8,8.3,30,11.9,30,16c0,4.1-2.2,7.7-5.9,9.5C24,25.6,23.8,25.6,23.7,25.6z"
				/>
		</g>
		<g>
			<path d="M22.6,21.2c-0.4,0-0.7-0.2-0.9-0.6c-0.2-0.5,0-1.1,0.5-1.3c1.3-0.6,2.1-1.9,2.1-3.3s-0.8-2.7-2.1-3.3
				c-0.5-0.2-0.7-0.8-0.5-1.3c0.2-0.5,0.8-0.7,1.3-0.5c2,0.9,3.2,2.9,3.2,5.1s-1.3,4.1-3.2,5.1C22.9,21.1,22.8,21.2,22.6,21.2z"/>
		</g>
	</g>
</g>
<g id="Guides">
</g>
</svg>
