<svg xmlns="http://www.w3.org/2000/svg" viewBox="0 0 32 32">
  <path fill="#fff" d="M19.333 13.2h-7.466v1.2h7.6c.267-.133.533-.267.533-.667-.267-.266-.4-.533-.667-.533Z"/>
  <path fill="#fff" d="M25.333 0H6.667A6.6 6.6 0 0 0 0 6.667v18.666A6.6 6.6 0 0 0 6.667 32h18.666A6.6 6.6 0 0 0 32 25.333V6.667A6.6 6.6 0 0 0 25.333 0Zm.533 22.8c0 .133 0 .267-.267.267h-5.332A.287.287 0 0 1 20 22.8v-3.2a1.167 1.167 0 0 0-1.067-1.2H12c-.267 0-.267.133-.267.4v4.133c0 .267-.133.267-.4.267H6.267C6 23.2 6 23.067 6 22.8V9.333c0-.267.133-.267.267-.267h13.466A10.445 10.445 0 0 1 23.2 9.6a3.548 3.548 0 0 1 2.133 4.8 3.123 3.123 0 0 1-1.6 1.6c-.133 0-.133 0-.267.133.133 0 .133.133.267.133a3.335 3.335 0 0 1 2.133 3.2Z"/>
</svg>
