<svg xmlns="http://www.w3.org/2000/svg" viewBox="0 0 32 32">
  <path fill="#fff" d="M25.333 0H6.667A6.6 6.6 0 0 0 0 6.667v18.666A6.6 6.6 0 0 0 6.667 32h18.666A6.6 6.6 0 0 0 32 25.333V6.667A6.6 6.6 0 0 0 25.333 0Zm-17.6 16.533L12 9.867c0-.133.267-.133.267 0 .667 1.6 1.333 3.467 1.067 4.667a5.053 5.053 0 0 1-.8 1.733c0 .133-.133.133-.133.267H7.733c0 .266-.133.133 0-.001ZM26.267 18.8a.131.131 0 0 1-.133.133 4.9 4.9 0 0 0-1.867 1.333c-1.2 1.6-2.133 4-4.133 4h-8.267a5.349 5.349 0 0 1-5.333-5.333v-.267c0-.133 0-.133.133-.133h4.667a.131.131 0 0 1 .133.133 2.269 2.269 0 0 0 .133.933 1.64 1.64 0 0 0 1.467.933h2.267v-1.865h-2.267c-.133 0-.133-.133-.133-.267a.131.131 0 0 1 .133-.133 5.829 5.829 0 0 0 .8-1.333 4.736 4.736 0 0 0 .533-1.2c0-.133 0-.133.133-.267 0-.133.133-.267.133-.4s0-.267.133-.267a2.936 2.936 0 0 0 .133-1.067V12.4c-.267 0-.267-.133-.267-.4 0-.133-.133-.267-.133-.4-.133-.4-.267-.933-.4-1.333 0-.133-.133-.267-.133-.533-.133-.267-.133-.4-.267-.667 0-.133-.133-.133-.133-.267s-.133-.133-.133-.267-.133-.133-.133-.267l-.4-.4c0-.133 0-.133.133-.133l1.733.533.267.133.267.133h.133v-1.2A.911.911 0 0 1 16.4 6.4a.911.911 0 0 1 .933.933v1.6h.133l.133.133c.133 0 .133.133.267.133.133.133.4.267.533.533l.133.133a6.16 6.16 0 0 1 .933.933l.267.267c.133.133.267.267.267.4.133.133.267.267.267.4s.133.133.133.267c.133.133.267.4.4.533 0 .133.133.133.133.267a1.9 1.9 0 0 1 .267.8v1.2a.49.49 0 0 1-.133.4c0 .133-.133.267-.133.4-.133.267-.267.4-.4.667 0 .133-.133.133-.133.267s-.133.133-.133.267c-.133.133-.133.267-.267.267a.413.413 0 0 1-.133.267c-.133.133-.267.267-.267.4s-.133.133-.267.267l-.267.267c-.133.133-.267.133-.267.267h-1.732V20.4H18.8a1.514 1.514 0 0 0 1.067-.4l1.067-1.067h.133L26 17.467c.133 0 .133 0 .133.133v1.2Z"/>
</svg>
