<?xml version="1.0" standalone="no"?>
<!DOCTYPE svg PUBLIC "-//W3C//DTD SVG 20010904//EN"
 "http://www.w3.org/TR/2001/REC-SVG-20010904/DTD/svg10.dtd">
<svg version="1.0" xmlns="http://www.w3.org/2000/svg"
 width="512.000000pt" height="512.000000pt" viewBox="0 0 512.000000 512.000000"
 preserveAspectRatio="xMidYMid meet">
<metadata>
Created by potrace 1.14, written by Peter Selinger 2001-2017
</metadata>
<g transform="translate(0.000000,512.000000) scale(0.100000,-0.100000)"
fill="#000000" stroke="none">
<path d="M928 4785 c-26 -7 -76 -29 -111 -48 -206 -116 -262 -359 -135 -587
37 -67 119 -180 130 -180 19 0 5 -33 -35 -82 -23 -29 -51 -65 -62 -79 -28 -37
-143 -189 -165 -219 -10 -14 -48 -65 -85 -115 -109 -147 -130 -203 -129 -350
0 -68 7 -114 28 -185 15 -52 32 -100 37 -106 6 -7 -19 -39 -74 -95 -93 -95
-145 -166 -206 -286 -42 -82 -87 -202 -97 -258 -3 -16 -9 -47 -14 -68 -15 -71
-5 -236 19 -297 45 -114 128 -169 257 -172 37 -1 71 5 89 15 l31 15 2 -31 c11
-172 106 -456 204 -612 53 -83 161 -215 221 -270 114 -104 294 -219 398 -254
28 -9 39 -22 66 -80 44 -92 80 -116 179 -116 62 0 80 5 145 38 74 37 76 37
154 30 104 -9 1477 -9 1575 0 73 7 77 6 149 -30 65 -33 83 -38 146 -38 59 0
78 4 106 24 41 28 77 79 86 122 4 20 14 34 31 40 228 87 462 272 601 476 125
183 209 404 237 623 10 80 11 82 41 63 32 -21 118 -20 189 3 68 21 127 79 155
153 43 112 30 313 -30 483 -55 158 -166 331 -282 444 -68 65 -69 66 -54 94 8
16 26 70 39 121 42 165 25 307 -51 422 -47 70 -238 330 -256 349 -7 7 -24 29
-37 48 -13 19 -27 37 -30 40 -16 14 -90 109 -90 115 0 4 27 43 60 87 133 175
175 345 125 493 -86 251 -424 354 -662 201 -50 -31 -109 -91 -142 -142 l-27
-41 -49 24 c-192 92 -548 188 -780 209 -27 2 -66 7 -85 10 -47 7 -302 6 -365
-1 -160 -18 -187 -22 -330 -50 -193 -39 -393 -103 -534 -170 l-45 -22 -27 41
c-65 102 -171 177 -286 204 -58 13 -168 12 -225 -3z"/>
</g>
</svg>
