<svg xmlns="http://www.w3.org/2000/svg" id="Layer_1" data-name="Layer 1" viewBox="0 0 412.12 300">
  <defs>
    <clipPath id="clip-path">
      <path d="M0 0h412.12v300H0z" class="cls-1"/>
    </clipPath>
    <clipPath id="clip-path-2">
      <path d="M0 0h412.12v300H0z" class="cls-1"/>
    </clipPath>
    <style>
      .cls-1{fill:none}
    </style>
  </defs>
  <g clip-path="url(#clip-path)">
    <g clip-path="url(#clip-path-2)">
      <path fill="#fd595c" d="M52.28.18c1.88-.35 3.07 1 3.71 2.58q2.43 4.86 4.85 9.74 2.8 5.7 5.89 11.27c4.62 8.77 28.23 40.32 38 40.62C193.06 13 276.45 54 291.25 62.07c2 .75 4.16 3.29 6.41 2.21a55.25 55.25 0 0 0 9.11-6.68C317 47.22 326.69 36 333.9 23.31c3.82-7 7.26-14.21 10.89-21.33 3.71-5.64 8.55 3.39 10.7 6.37 12.9 21.41 11 53.63 5.86 77.32-10.05 36.93-17.45 13.72-2.19 38.62 6.62 12.76 14.13 29.71 8.21 43.88-1 1.32 0 2.72.48 4 10.93 25.5 15.69 54.79 7.61 81.76-5.73 17.67-18.72 37.49-36.87 43.75-10.72.81-21.5.43-32.24.86q-55.21 1-110.42 2.13c-34.16-1.21-68.5-1.36-102.72-2.25q-15.49-.29-31-.74c-2.47.07-4.58-1.27-6.61-2.54-36.6-22.87-41.25-72.62-27.82-110.37 1.64-5 3.56-9.78 5.57-14.59.49-2-1.73-3.71-1.81-5.83a30.83 30.83 0 0 1-.56-9c1.17-14.47 7.53-28.11 15.85-39.85 1-1.33 2-2.63 3-4 .55-.67.59-.6 0-1.49C32.05 87.5 27.44 18.3 52.28.18M47.09 228.6c.11 6.7 0 12.28 2 18.42 4.13 11.12 11 22.07 21 28.65 1.65.91 1.31 1 2.76-.31 2.51-2.2 5-4.44 7.45-6.69 2.38-1.54 15.06-15.4 16.48-13.18 9.44 6.15 17.36 14.31 27.15 20 2.75 1.56 6.1 4.56 9.38 2.8q6.57-3.74 12.86-7.9c6.54-4.32 12.59-9.34 19.07-13.74 4-2 9.15 3.41 12.65 5.15 4.88 3.17 9.7 6.43 14.8 9.25s7.7 4.24 13 1.07c7.54-3.91 14.42-8.93 21.61-13.42 2.32-1.22 5.18-3.73 7.83-2 8.32 5.65 16 12.18 24.7 17.33 5.36 2.75 8.12 7.21 14.25 2.88 9.16-5.34 17.19-12.18 25.46-18.75 1.81-.81 3.73-3.72 5.8-2.6 5.5 4.49 10.56 9.51 15.91 14.19a57.49 57.49 0 0 0 6.47 5.5c1.64 1.09 1.53 1.08 3.18 0a29.64 29.64 0 0 0 5.3-4.25c10-10.21 17.57-23.72 17-38.35.2-15.83-1.78-32-7.05-47-2.83-8.19-16.77-16.15-24.6-19.34-2-.62-6.83 2.67-9.15 3.3-8.86 4.06-17.75 8.13-27 11.2-8.8 3.3-10-1-15.61-6.49-4.35-4.78-8.77-9.5-13-14.37-4.47-5.23-8.21-11.05-12.91-16.07-1.75-2.08-4.62 1.23-6.37 2-10.89 7.21-20.61 16-31.29 23.48-3.51 2.7-6.21 4.9-10.11 1.37-10.83-7.5-20.62-16.36-31.55-23.71-2-1-5.54-4.7-7.58-3.6a78.88 78.88 0 0 0-7.17 8.63 166.37 166.37 0 0 1-13 15.41c-3.12 3.49-6.28 6.94-9.55 10.3-1.79 1.6-3.35 4.19-6 4.18-5.31-.22-10.22-2.64-15.13-4.46-8.66-3.39-17-7.46-25.53-11.17a2.18 2.18 0 0 0-1.7-.07c-8.39 3.56-18.68 9.44-23.69 17.13-5.89 14-7.59 30.22-8.09 45.2M289.43 63.88C263.07 49 164.15 8.79 73.32 91.88c-12.43 14.79-6.29 6-1 13.28 4.76 9.51 1.25 21-1.92 30.57C65.61 148 52 174.93 36 171.2c-1-.23-1 1.21-1.45 1.8a155.9 155.9 0 0 0-7.48 21.78 121.49 121.49 0 0 0-4.17 31.45c-.42 27.37 12.44 55.38 36.79 69.12 20.37 1.18 41.07.89 61.55 1.57 25.48.43 50.95 1.34 76.43 1.58 43.59-.54 87.17-1.76 130.75-2.72 1.86-.21.48-.76-1-.7-12.31.09-24.62.39-36.93.49q-24.48.33-49 .61c-11.46-.31-23.27 1.23-34.56-.67-5.27-2.19-5-9-5-13.85-.67-2.81 14.71-8.78 17.6-11.25 1.22-.89 21.12-13.76 12.37-11.86-10.27 5.45-19.3 13.59-30.53 17.45-5.06 1.32-9.72-2.47-14-4.64-6.15-3.78-12.59-7.16-18-11.94-3.11-3-6.43 2.06-9.18 3.47-8.52 6.32-17.12 12.62-26.49 17.62-3.5 1.91-7.6 1-10.72-1.26-9.27-6.4-18.13-13.36-27.32-19.85-1.06-.74-1.07-.74-2.05.16l-5.37 4.91q-7.44 6.82-14.86 13.66a2 2 0 0 1-2.16.49c-12.56-6-23.67-24-25.72-37.57a141.35 141.35 0 0 1 6.72-56.29c4.15-10.28 16.78-16.55 26.17-21.42a1.71 1.71 0 0 1 1.81.1c5.36 2.57 39.93 19.7 42.86 15.5a359.27 359.27 0 0 0 30.65-35c2-2.62 4-4.16 7.05-1.88 5.22 3.19 10.16 6.79 15.07 10.43 3.41 2.21 23.21 20.07 25.53 17.57 7.42-3.4 38.64-33.06 43.14-28.46 8.36 9.37 15.59 19.74 24.51 28.65 3.22 3.11 5.9 7.34 9.82 9.47 5.08-.05 2.83-.81.37-3.43Q266 162.12 253.8 147c-2.28-2.84-4.77-5.85-8.18-7.36-7.36-1.57-15.36 6.76-21 10.86-6.36 5.18-12.94 10.12-19.43 15.14-5.77 5.08-8.36.67-12.79-3.22-9.67-8.24-18.92-17-26.28-27.41-6.51-8.23-.06-10.07 6.18-14.5a74.1 74.1 0 0 0 17.73-21.66c1.78-4.39-1.22-8.9-4-12.14-3.48-3.95-9.55.16-13.24-3.72-3.46-3.11-4.3-8.32-4.71-12.75-1.32-10.56-.13-19.76 10.8-24.49 49.48-10.24 96 13.28 110.56 18.13M59.25 14.57c6.47 16.77 15 33.1 28 45.75.78.93.68 1.49-.36 2.12q-4.25 2.56-8.54 5.14c-6.76 3.88-12.22 9.71-16.69 16-4 1.46-9.27-13.12-10.7-16.37C43.57 51 41.19 32.24 47 15.13A33.66 33.66 0 0 1 52.69 3a.32.32 0 1 0-.47-.44C34.57 19.74 35.35 57.87 40 80.57c1.79 10 5.12 19.89 11.27 28 .42.47.5.48 1 .12 3.1-2.43 6-5.22 9.73-6.65 3-1.9 4.24-5.86 6.84-8.33A117.93 117.93 0 0 1 79.3 83c6.7-6.38 14.51-11.24 21.88-16.67C90.32 58.47 81.5 48.2 73.37 37.54c-5.91-6.9-9.51-15.23-14.12-23M353.34 9c6.16 12 7.39 25.91 7.77 39.3.45 17.61-2.42 36.05-10.89 51.58-.71.85-1.15.85-1.83 0a147.27 147.27 0 0 0-23.51-22.16c-3.36-3-4.93-2-1.72-5.16 8.65-8.95 14.82-19.95 19.35-31.47 4.18-11 7.2-22.91 6.05-34.75-.19-1.18-.62-5.43-2.16-3-1.74 3.08-3.13 6.34-4.75 9.48-9.35 19.62-22.71 37.89-39.88 51.37-.63.67-3.17 1.59-1.74 2.48 2.48 1.81 5 3.62 7.44 5.42 7.59 5.3 14.43 11.53 21.36 17.64a160.19 160.19 0 0 1 13.37 12.41c1.74 1.2 5.85 9.32 7.49 5.66 16-22.31 18.68-75.6 3.65-98.79M72.66 114.27c-.88-22.85-20.72-4.12-26.48 5.71-7.35 11.57-18.38 34.71-11 47.76 8.42 8.86 22.26-11.15 26.22-17.72 6.27-11.2 11-22.41 11.25-35.75M367.53 158c-.19-12-5-23.56-10.85-33.93-4.66-7.91-10.53-15.87-19.05-19.88a6.12 6.12 0 0 0-8.81 3.61c-3.18 10.95 1.09 22.52 5.23 32.65 4.55 9.9 10.37 19.72 19.13 26.46 9.06 7 14.88 1.4 14.35-8.91m-43.84 6.54c8.48 4.47 18.15 9.46 23.47 17.75 4.45 10.31 6 21.56 7.45 32.61 1.09 11.59 2.05 24.69-2.26 35.7a68.73 68.73 0 0 1-20.55 27.26c9.37-2.34 18.74-17.16 23.48-25.32 4.37-8.56 2.87-18.65 2.94-27.94-.56-13.42-2.33-27-7-39.64-1.73-5.95-6.52-10.31-11.46-13.73-2.88-2.1-13.25-9.84-16.12-6.69m1.74-51.83c-4.71 16.92 11.8 54.85 30.15 58.14a56 56 0 0 1-18-19.38 80.73 80.73 0 0 1-12.16-38.76M213.35 98.18c1.33.17 2.37-.73 3.59-1a3 3 0 0 0 1.5-.85c2.92-2.72 5.46-9.13 1.07-11.49-4.64-.2-9.16 3.9-9.7 8.41.14 2 1 5.24 3.54 4.93m89.9 160.5-.14-.13c-6.74 4.06-11.92 10.15-18.67 14.22-3.75 2.63-7.93 5-11.51 7.68 9.15 2.62 24.78-15.11 30.32-21.77"/>
    </g>
  </g>
</svg>
