<svg xmlns="http://www.w3.org/2000/svg" id="Layer_1" data-name="Layer 1" viewBox="0 0 800 238.39">
  <defs>
    <style>
      .cls-1{fill:#fff}.cls-2{fill:#fb3536}
    </style>
  </defs>
  <path d="M411.18 172.29h1c-.32-.02-.66 0-1 0Zm379.63-128.2a64.37 64.37 0 0 1-8.68 31 109.58 109.58 0 0 1-9.34 13.36l2.58 4.09c3.57 5.62 6.55 10.7 9 15.35 1.26-1.84 2.38-3.58 3.29-5.19a64.31 64.31 0 0 0 8.72-32.27 62.72 62.72 0 0 0-5.57-26.34ZM340.07 172.25h1c-.32.04-.66.02-1 0Z" class="cls-1"/>
  <path d="M795.13 146.85c-.21-.54-.45-1.11-.68-1.67a60.53 60.53 0 0 1-6.93 27.27c-10.95 21-29.84 33.27-53.18 34.43h-3.4a61.12 61.12 0 0 1-34.55-10.16 67.15 67.15 0 0 1-13.25 8.28l-.69.31a61.8 61.8 0 0 1-25.25 5.44 46.87 46.87 0 0 1-6.49-.45 63.3 63.3 0 0 1-42-22.07 62.18 62.18 0 0 1-34.94 10.43 67.61 67.61 0 0 1-28.73-6.55 77.51 77.51 0 0 1-11.57-6.48 66.435 66.435 0 0 1-4.34 3.65 62.56 62.56 0 0 1-38.53 13h-3.38a28.41 28.41 0 0 1-2.92-.15 62.22 62.22 0 0 1-36.3-16.26 42.12 42.12 0 0 1-3 3.39 40.72 40.72 0 0 1-20.9 11 61.85 61.85 0 0 1-12.93 1.46 47.28 47.28 0 0 1-12.08-1.53c-7.74.63-15.34 1-22.64 1.07h-.69c-7.3-.08-14.9-.44-22.64-1.07a47.28 47.28 0 0 1-12.08 1.53 61.85 61.85 0 0 1-12.93-1.46 40.64 40.64 0 0 1-20.89-11c-1-1-1.86-2-2.72-3a60.32 60.32 0 0 1-44.08 18.48H259a62.58 62.58 0 0 1-35.86-12.38A61.4 61.4 0 0 1 185 205.7a50.18 50.18 0 0 1-6.79-.45 62.53 62.53 0 0 1-37.78-17.75 64.44 64.44 0 0 1-22.15 10.28 96.44 96.44 0 0 1-23.94 3.09h-2c-20.27-.21-37.81-4.42-52.13-12.51l-.22-.12C20.53 177 7.05 161.43 0 142.37c1.68 31.87 17.34 57.24 45.52 73.47l.22.13c14.32 8.09 31.86 12.3 52.13 12.51h2a96.52 96.52 0 0 0 23.95-3.09A64.53 64.53 0 0 0 146 215.11a62.41 62.41 0 0 0 37.77 17.74 48.63 48.63 0 0 0 6.8.46A61.39 61.39 0 0 0 228.62 220a62.58 62.58 0 0 0 35.86 12.38H266a60.29 60.29 0 0 0 44.08-18.48c.86 1 1.76 2 2.72 3a40.64 40.64 0 0 0 20.89 11 62.68 62.68 0 0 0 12.93 1.46 47.28 47.28 0 0 0 12.08-1.53c7.74.63 15.35 1 22.64 1.07h.66c7.3-.08 14.91-.44 22.64-1.07a47.28 47.28 0 0 0 12.08 1.53 62.7 62.7 0 0 0 12.94-1.46 39.54 39.54 0 0 0 23.9-14.42 62.18 62.18 0 0 0 36.27 16.31 28.55 28.55 0 0 0 2.92.15h3.39a62.55 62.55 0 0 0 38.52-13q2.26-1.74 4.34-3.65a77.51 77.51 0 0 0 11.57 6.48 67.62 67.62 0 0 0 28.74 6.55 62.21 62.21 0 0 0 34.94-10.43 63.23 63.23 0 0 0 42 22.07 46.87 46.87 0 0 0 6.49.45A61.84 61.84 0 0 0 688 233l.68-.31a67.15 67.15 0 0 0 13.25-8.28 61.12 61.12 0 0 0 34.55 10.16h3.4c23.34-1.16 42.23-13.39 53.18-34.43A60.58 60.58 0 0 0 800 172a69.62 69.62 0 0 0-4.87-25.15Z" class="cls-1"/>
  <path d="M403.09 170.57a5.5 5.5 0 0 1 1.24.38 5.5 5.5 0 0 0-1.24-.38Z" class="cls-1"/>
  <path d="M110.31 11.61a34.43 34.43 0 0 1 18.86 12.08 32.79 32.79 0 0 1 7 20.8 4.64 4.64 0 0 1-.24 1.45 32.06 32.06 0 0 1-8.22 20.55q-7.74 8.7-20.31 11.12a19.77 19.77 0 0 0-11.85 6.65 18.77 18.77 0 0 0-4.35 12.45 24.82 24.82 0 0 0 .48 4.84 2 2 0 0 0 .36 1.21 1.53 1.53 0 0 0 .85.6 3.53 3.53 0 0 0 .85.12 5.16 5.16 0 0 0 1-.12 5.13 5.13 0 0 1 .85-.12 50.21 50.21 0 0 1 6.53-.48 32.66 32.66 0 0 1 9.91 1.45 35.3 35.3 0 0 1 18 12.2 31.9 31.9 0 0 1 6.89 20.19v.49A33.31 33.31 0 0 1 111 169.24a66.81 66.81 0 0 1-16.68 2.18h-1.66q-23-.24-38-8.71-30.23-17.4-30.95-52-.24-7.24-.24-10.64 0-19.57 4.35-31.91Q42.61 26.6 82.26 12.57A48.15 48.15 0 0 1 98 9.91a45.46 45.46 0 0 1 12.31 1.7ZM660.34 0a31.06 31.06 0 0 1 19.82 7.13 36.31 36.31 0 0 1 12.34 18.74 2.89 2.89 0 0 1 .36 1.33 3.26 3.26 0 0 0 .48 1.57 1.26 1.26 0 0 0 1.09.48 1.22 1.22 0 0 0 1.21-.12 4.08 4.08 0 0 0 1-1.2 5.8 5.8 0 0 1 .72-1.09c.48-.49 1.45-1.61 2.9-3.39a30 30 0 0 1 3.63-3.87Q714.25 9.43 728 9.43a33.09 33.09 0 0 1 20.55 7Q761.4 26.6 761.4 42.79a35.1 35.1 0 0 1-4.83 17.65q-3.89 6.78-16.2 20.8a6.55 6.55 0 0 0-1.94 4.35 9.52 9.52 0 0 0 1.21 4.11q2.42 5.33 10.88 18.62t11.61 21.51a40.22 40.22 0 0 1 2.9 14.51 31.2 31.2 0 0 1-3.63 14.51q-9.2 17.66-28.53 18.61h-1.93q-19.35 0-29.5-17.89a55.62 55.62 0 0 1-2.78-5.07q-1.81-3.63-3.51-6.41a35 35 0 0 0-3.86-5.2q-1.21 10.4-1.7 12.33-4.35 16.2-19.1 23.21a32.48 32.48 0 0 1-13.29 2.9 17.85 17.85 0 0 1-2.91-.24 33.53 33.53 0 0 1-15.47-5.2 33 33 0 0 1-11.12-11.72 36 36 0 0 1-4.59-16 96.97 96.97 0 0 1-.25-7.26q0-8.94 1.45-24.41.5-6.29.73-10.16 0-9.18.36-33.6t.6-37.68q.24-14 8.82-23.58A34.27 34.27 0 0 1 656.71.24a25.93 25.93 0 0 1 3.63-.24Z" class="cls-2"/>
  <path d="M475.24 107.38a49.7 49.7 0 0 0-8.35-19.64 29.56 29.56 0 0 0-9.46-9.29 1.09 1.09 0 0 1-.51-.92c-.52-2.84-1-5.68-1.6-8.51a117.34 117.34 0 0 0-8.17-25.67c-8.83-19-23-32.08-43-38.6a100.24 100.24 0 0 0-28-4.75 100.25 100.25 0 0 0-28 4.75c-20 6.52-34.17 19.6-43 38.6A117.34 117.34 0 0 0 297 69c-.59 2.83-1.08 5.67-1.6 8.51a1.09 1.09 0 0 1-.51.92 29.42 29.42 0 0 0-9.45 9.29 49.57 49.57 0 0 0-8.44 19.66c-.81 4.57-.81 9.08 1.47 13.32a11.78 11.78 0 0 0 13.61 6c.89-.22 1 .06 1.1.77a78.09 78.09 0 0 0 5.16 19.34 47.88 47.88 0 0 0 18.14 22.4 9 9 0 0 1 3.52 3.86 13.67 13.67 0 0 0 2.71 3.93 12.88 12.88 0 0 0 6.74 3.35c5.15 1.07 10.38 1.6 15.33-.56 2.3-1 4.39-.44 6.54-.25 8.25.71 16.51 1.14 24.79 1.24 8.27-.1 16.53-.53 24.78-1.24 2.15-.19 4.24-.75 6.54.25 5 2.16 10.18 1.63 15.33.56a12.88 12.88 0 0 0 6.74-3.35 13.67 13.67 0 0 0 2.71-3.93 9 9 0 0 1 3.52-3.86 47.88 47.88 0 0 0 18.14-22.4 78.09 78.09 0 0 0 5.16-19.34c.1-.71.21-1 1.1-.77a11.78 11.78 0 0 0 13.61-6c2.31-4.24 2.31-8.7 1.5-13.32Z" class="cls-1"/>
  <path d="M610.9 64.68c-.09-7.17-.12-12.53-.12-16.08a31.38 31.38 0 0 0-8.1-21.6q-8.1-9.08-21.64-11.49a31.41 31.41 0 0 0-3.87-.24q-9.2 0-18 6.05a34.44 34.44 0 0 0-12.7 15.23 3.21 3.21 0 0 0-.48 1.33 5.35 5.35 0 0 1-.72 1.81 2.39 2.39 0 0 1-1.46 1l-6-7.25Q521.56 12.57 497.14 9a33 33 0 0 0-5.56-.49h-.72a35 35 0 0 0-20.68 6.41A32.2 32.2 0 0 0 457.89 32c.9 1.69 1.79 3.41 2.61 5.2a130.81 130.81 0 0 1 9.23 28.8c.26 1.24.5 2.47.72 3.68a49 49 0 0 1 8.55 9.68 64.38 64.38 0 0 1 10.74 25.43c1.56 8.75.59 16.24-3 22.88a26.58 26.58 0 0 1-15.27 12.93 91.71 91.71 0 0 1-4 11.9 73.21 73.21 0 0 1-3.58 7.33 35.29 35.29 0 0 0 2.51 2.89 32.75 32.75 0 0 0 20.79 10.15h3.38a32.81 32.81 0 0 0 20.6-6.87 35.07 35.07 0 0 0 12.33-18.5q.48-2.41.84-5.07c.24-1.78.44-3.87.61-6.29s.32-4.43.48-6l8.46 14q9.43 15 23.45 21.28a38.44 38.44 0 0 0 16.44 3.86 32.51 32.51 0 0 0 22.85-8.82q9.55-8.82 11-23.57c.16-1.13.4-2.86.73-5.2a42.45 42.45 0 0 0 .48-5Q611 108.32 611 80.75q0-5.31-.1-16.07ZM284.77 152.5a90.25 90.25 0 0 1-4-11.9 26.58 26.58 0 0 1-15.27-12.93c-3.58-6.64-4.55-14.13-3-22.88a64.38 64.38 0 0 1 10.74-25.43 49 49 0 0 1 8.54-9.67c.22-1.21.46-2.44.72-3.68a130.81 130.81 0 0 1 9.23-28.86c1-2.21 2.13-4.33 3.27-6.39a33.37 33.37 0 0 0-9.93-17 32.66 32.66 0 0 0-23-8.7h-1.21A31.43 31.43 0 0 0 238.57 15 34 34 0 0 0 229 38.2q-.5 11.37-1.21 25.15a5.57 5.57 0 0 1 0 2.41 1.55 1.55 0 0 1-1 .73 3.57 3.57 0 0 1-2.18.72 7.29 7.29 0 0 1-4.95-2 5.94 5.94 0 0 1-2.3-4.47q-.19-19.64-1.36-25.68Q213.29 22 204.11 14a31.75 31.75 0 0 0-21.51-8 41.55 41.55 0 0 0-6.29.49 31.86 31.86 0 0 0-19.83 11.85 34.56 34.56 0 0 0-7.73 22.24 31.27 31.27 0 0 0 .48 5.56 112.53 112.53 0 0 1 1 14.26v13.83q0 11.83.6 34.81t.61 34.33a31.31 31.31 0 0 0 8.7 22.13 32.93 32.93 0 0 0 21.73 10.5 19.26 19.26 0 0 0 3.14.24 31.81 31.81 0 0 0 20.43-7.49 33.38 33.38 0 0 0 12-18.86 52.38 52.38 0 0 0 1-10.64v-2.17c0-1.94 1-2.82 3.14-2.66a6 6 0 0 1 4.11 1.57 7.47 7.47 0 0 1 1.45 4.47q0 14.76 9.43 24.54A32.89 32.89 0 0 0 260 175.29h.49a31 31 0 0 0 23.21-9.79 36.84 36.84 0 0 0 4.59-5.84 68.72 68.72 0 0 1-3.52-7.16Z" class="cls-2"/>
</svg>
