<svg xmlns="http://www.w3.org/2000/svg" id="Layer_1" data-name="Layer 1" viewBox="0 0 420 296.96">
  <defs>
    <clipPath id="clip-path">
      <path d="M0 0h420v296.96H0z" class="cls-1"/>
    </clipPath>
    <clipPath id="clip-path-2">
      <path d="M0 0h420v296.96H0z" class="cls-1"/>
    </clipPath>
    <style>
      .cls-1{fill:none}.cls-4{fill:#addd83}
    </style>
  </defs>
  <g clip-path="url(#clip-path)">
    <g clip-path="url(#clip-path-2)">
      <path d="M166.43 0h85a1.33 1.33 0 0 0 .39.49 115.27 115.27 0 0 1 8 8.54 15.23 15.23 0 0 1 2.26 3.09 1.44 1.44 0 0 1 .17.84c-.13 1.25-.18 2.5-.23 3.74-.06 1.49-.2 3-.26 4.46 0 1-.09 2-.16 3-.16 2.35-.38 4.69-.48 7-.06 1.58-.2 3.15-.26 4.73q-.06 1.52-.15 3c-.16 2.47-.39 4.93-.48 7.39-.07 1.82-.29 3.63-.23 5.45a3.31 3.31 0 0 1-.06.53c-.17 1.18-.18 1.19 1 1.55 1.71.52 3.42 1 5.14 1.53 5.63 1.59 11.14 3.5 16.58 5.64 3.25 1.27 6.44 2.67 9.6 4.15q6 2.81 11.77 6c1.61.9 3.22 1.82 4.89 2.61a1.16 1.16 0 0 0 1.25-.09c1-.63 2-1.22 2.95-1.86q6.58-4.29 13.17-8.61c3.81-2.5 7.61-5 11.41-7.55l15.07-10 12.72-8.48a2.61 2.61 0 0 1 1.77-.44 13.58 13.58 0 0 1 4.74 1.45 24.06 24.06 0 0 1 7.24 5.45 9.73 9.73 0 0 1 2.37 3.85 2.68 2.68 0 0 1-.11 1.91c-.47 1.07-1 2.11-1.49 3.15-2.5 5-5.09 10-7.66 15-1.59 3.07-3.11 6.18-4.71 9.25-2.14 4.13-4.22 8.29-6.32 12.44-1.44 2.84-2.86 5.7-4.31 8.54q-2.89 5.66-5.82 11.29a.72.72 0 0 0 .07 1 4.8 4.8 0 0 1 .32.43c1.74 2.18 3.52 4.35 5.23 6.57 2.83 3.65 5.47 7.43 8 11.31q3.17 4.88 6 10t5.19 10.18q2 4.26 3.73 8.61c1.9 4.8 3.61 9.66 5.07 14.61q2.32 7.94 3.91 16.05 1.08 5.64 1.81 11.36a.72.72 0 0 0 .71.74c3.5.54 6.93 1.45 10.42 2.07 2.55.45 5 1.24 7.57 1.72a7.08 7.08 0 0 1 2.68 1.16c1 .67 2 1.34 2.95 2a13.18 13.18 0 0 1 2.86 2.67v7.69a.92.92 0 0 0-.16.68c-.06 2.5 0 5-.17 7.5-.13 1.57-.09 3.16-.16 4.73-.13 3.33-.2 6.67-.39 10-.08 1.48-.08 3-.14 4.46-.13 3.12-.24 6.25-.39 9.37a4.76 4.76 0 0 1-1.36 3.2 17.2 17.2 0 0 1-3.11 2.4 5.79 5.79 0 0 1-2.48.94c-2.27.33-4.54.61-6.81.91l-6 .79c-2.42.33-4.83.66-7.25 1-1.29.19-2.57.45-3.87.63a1 1 0 0 0-.95 1c-.07.56-.17 1.13-.19 1.69-.08 2.44-.31 4.87-.56 7.29-.19 1.93-.34 3.85-.59 5.77q-.45 3.58-1.05 7.15a22.43 22.43 0 0 1-1.22 5 27.6 27.6 0 0 1-2.37 4.7c-.18.27-.34.56-.73.58-.54 0-1.07.13-1.6.15-3.34.08-6.67 0-10 .15-4.74.19-9.48 0-14.22.18-6.07.2-12.16 0-18.24.18-6.82.2-13.65 0-20.47.18-7.57.2-15.14 0-22.72.18-7.74.2-15.5 0-23.25.18-7 .18-14.07 0-21.1.2-4.44.14-8.88 0-13.32.16-4 .18-8.05 0-12.07.18-1.87.11-3.75 0-5.63 0h-22.22c-.86-.05-1.72-.12-2.58-.14-3.1-.09-6.2 0-9.3-.16-5.18-.19-10.37 0-15.56-.18-6.46-.2-12.94 0-19.41-.18-7.54-.2-15.08 0-22.63-.18s-15 0-22.45-.18c-6.79-.19-13.59 0-20.39-.18-5.66-.19-11.32 0-17-.17s-11.62 0-17.44-.22c-1.49-.05-3 0-4.47 0-.45 0-.89-.07-1.33-.11a1.19 1.19 0 0 1-1-.65 23.78 23.78 0 0 1-3-6.58c-.43-1.76-.7-3.56-1-5.35s-.55-3.89-.75-5.84-.5-4-.66-6-.35-3.91-.41-5.88a11.84 11.84 0 0 0-.2-1.77c-.15-.94-.22-1-1.17-1.18q-3-.49-6-.93c-2.42-.34-4.84-.61-7.25-1-3.09-.45-6.19-.87-9.29-1.23a7.87 7.87 0 0 1-3.25-.87 18.65 18.65 0 0 1-3.6-2.76 3.79 3.79 0 0 1-1.15-2.54c-.14-2.38-.25-4.76-.36-7.14-.06-1.31-.09-2.62-.14-3.92-.13-3.31-.22-6.61-.39-9.91C.66 232 .66 230.53.6 229c-.1-2.2-.15-4.4-.23-6.6 0-1.16-.11-2.33-.13-3.48 0-2.71-.23-5.42-.24-8.13a2.85 2.85 0 0 1 .87-2.08 30.49 30.49 0 0 1 5-3.8 7.85 7.85 0 0 1 2.91-1.28c1.84-.36 3.65-.9 5.49-1.27 4.14-.82 8.25-1.8 12.42-2.49a.75.75 0 0 0 .75-.79c.15-1.51.33-3 .56-4.52.69-4.38 1.52-8.73 2.54-13a168.3 168.3 0 0 1 6.8-22.2 172 172 0 0 1 9.33-20.1q1.21-2.25 2.5-4.44C52 130 55 125.25 58.29 120.71c1.89-2.6 3.81-5.18 5.88-7.65.8-1 1.54-2 2.32-2.94a1 1 0 0 0 .11-1.25c-.16-.31-.31-.64-.47-1l-5.73-11.1c-1.82-3.55-3.57-7.14-5.42-10.69-2.11-4-4.14-8.13-6.21-12.19l-3.94-7.73q-3.78-7.42-7.53-14.84c-.33-.64-.59-1.3-.89-2a2.71 2.71 0 0 1-.08-2.09 11.43 11.43 0 0 1 2.51-3.87A24.72 24.72 0 0 1 44.41 39a13.93 13.93 0 0 1 6-2.05 2.39 2.39 0 0 1 1.93.45c.37.3.81.51 1.2.77l17.63 11.62 22.31 14.75c4.4 2.92 8.8 5.82 13.26 8.64 1.67 1 1.67 1.07 3.21.23 2.57-1.39 5.13-2.8 7.69-4.2 3.8-2.07 7.7-3.93 11.66-5.67q5-2.22 10.2-4.1c3.42-1.24 6.86-2.4 10.35-3.44 2.37-.7 4.74-1.39 7.11-2.11 1.07-.32 1.13-.35 1-1.49-.11-1.34-.12-2.68-.17-4v-.1c-.17-2.41-.34-4.81-.49-7.21-.1-1.52-.09-3-.23-4.55-.11-1.1-.11-2.2-.18-3.3-.16-2.41-.38-4.81-.48-7.21-.06-1.55-.18-3.1-.26-4.64-.06-1.13 0-2.27-.17-3.39a57.91 57.91 0 0 1-.14-5.89 1.17 1.17 0 0 1 .28-.83c1.52-1.87 3.12-3.67 4.73-5.47s3.45-3.63 5.23-5.39a2.59 2.59 0 0 0 .32-.42M212 265.54c5.36-.08 14.45.15 23.55-.12 5.78-.17 11.56.05 17.35-.17 4.64-.18 9.29 0 13.95-.18 4.37-.19 8.76 0 13.14-.18 4-.18 8 0 12-.18 3.57-.18 7.15 0 10.73-.17 5.3-.19 10.61-.08 15.91-.17 6.05-.11 12.1-.16 18.16-.25h.44c.38 0 .52-.19.54-.55 0-.83.17-1.66.15-2.5 0-1.13-.1-2.26-.13-3.39-.05-2.38 0-4.77 0-7.15a27.72 27.72 0 0 1 1-6.71 3.26 3.26 0 0 1 1.59-2.14c2.54-1.55 5.13-3 7.72-4.5 3.33-1.87 6.65-3.75 10-5.59a2.27 2.27 0 0 0 1.25-1.72 56 56 0 0 0 .82-8.16 91.4 91.4 0 0 0-.09-9.65c-.18-2.53-.42-5-.73-7.55-.4-3.19-1-6.35-1.65-9.49a130.91 130.91 0 0 0-5.94-19.66 146.85 146.85 0 0 0-7.87-16.93q-2.56-4.72-5.45-9.24a153.34 153.34 0 0 0-11-15.18c-2.39-2.9-4.89-5.7-7.47-8.42-1.67-1.78-3.43-3.48-5.22-5.15q-4.83-4.53-10-8.6a115.74 115.74 0 0 0-16.29-10.65 96.11 96.11 0 0 0-11.52-5.33 7.58 7.58 0 0 0-1.54-.46c-.41-.06-.73.07-.79.51a1.83 1.83 0 0 1-.64 1c-.61.62-1.27 1.17-1.89 1.77a3.82 3.82 0 0 1-3.48.91c-.85-.13-1.71-.22-2.57-.31l-4-.4-4.53-.49-4.37-.39c-1.45-.16-2.89-.32-4.34-.46s-2.9-.27-4.35-.42l-6-.65c-1.57-.17-3.14-.29-4.71-.48a1 1 0 0 0-1 .37c-.38.46-.74.93-1.14 1.38a19.15 19.15 0 0 1-2.71 2.84 2.36 2.36 0 0 1-1.21.51 25 25 0 0 1-2.59.17c-11.27 0-22.54.21-33.81-.11a4.1 4.1 0 0 1-3.07-1.33c-1-1-1.9-2.14-2.8-3.25A1.2 1.2 0 0 0 184 96a22.15 22.15 0 0 1-2.57.26l-4.36.43-4.34.46-4.18.41-4.79.5-4 .4c-1.92.21-3.84.46-5.76.64-1.54.15-3.08.3-4.61.53a3.94 3.94 0 0 1-3.27-.82c-.39-.33-.78-.64-1.14-1s-.8-.81-1.21-1.2a2.13 2.13 0 0 0-2.21-.58c-.8.23-1.61.41-2.39.71a93 93 0 0 0-14.24 7.08c-2.84 1.69-5.57 3.57-8.26 5.49A122.21 122.21 0 0 0 104 119.86c-1.91 1.8-3.74 3.68-5.52 5.61q-3.73 4-7.21 8.29-4.23 5.16-8 10.64a192.32 192.32 0 0 0-11.57 19.14 109.5 109.5 0 0 0-6.56 14.78 133 133 0 0 0-4.9 17.18c-.53 2.59-1 5.19-1.4 7.81-.2 1.51-.38 3-.56 4.52-.23 1.89-.39 3.79-.45 5.69a85.38 85.38 0 0 0 .35 12.48 15.13 15.13 0 0 0 .71 3.59 4.08 4.08 0 0 0 1.65 2.16c3 1.86 6.11 3.59 9.2 5.33q3.87 2.16 7.67 4.43a3.9 3.9 0 0 1 1.9 2.64 32.62 32.62 0 0 1 .88 7.16c0 3.61-.16 7.21-.18 10.82a4.73 4.73 0 0 0 .1 1.24c.17.69.19.73.88.75 1.79 0 3.57.06 5.36.13 3.72.16 7.45 0 11.17.18 4.44.19 8.88 0 13.33.18 4.76.19 9.53 0 14.3.18s9.3 0 13.95.18 9.12 0 13.68.18 8.88 0 13.32.17c5.63.2 11.27.08 16.9.17 8.41.14 16.83 0 29 0M165.59 72.94a.75.75 0 0 0-.24-.65c-.74-1-1.49-1.94-2.25-2.89-1.37-1.69-2.75-3.37-4-5.18a2 2 0 0 1-.4-1c-.16-1.66-.34-3.32-.37-5 0-1.45-.09-1.51-1.48-1.13-5.55 1.52-11.07 3.14-16.47 5.13-4.45 1.64-8.83 3.44-13.12 5.46q-4.65 2.2-9.18 4.64c-3.72 2-7.37 4.16-10.93 6.45a170.74 170.74 0 0 0-20 14.92q-3.86 3.34-7.51 6.88c-3.37 3.43-6.64 6.91-9.78 10.53-2.38 2.75-4.66 5.58-6.87 8.46-3.07 4-5.9 8.16-8.6 12.42s-5.17 8.65-7.48 13.12c-1.47 2.87-2.83 5.79-4.12 8.74A159.79 159.79 0 0 0 36.71 170 157.94 157.94 0 0 0 32 188.76q-1.34 7.16-2.07 14.39c-.24 2.43-.44 4.86-.52 7.3-.07 2.14-.16 4.28-.21 6.43s.13 4.22.14 6.34c0 1.73.18 3.45.25 5.17 0 .83.07 1.67.17 2.5.29 2.39.5 4.79.83 7.17.35 2.6.75 5.18 1.23 7.76.44 2.4.92 4.79 1.49 7.16.77 3.25 1.6 6.48 2.64 9.66.26.81.4.91 1.19.94 1.84.07 3.69.14 5.54.17 5.42.11 10.85 0 16.27.15 5.16.15 10.32.05 15.48.05.9 0 .92 0 .91-.89q-.07-3.57-.17-7.14a2.45 2.45 0 0 0 0-.27c-.17-1.75-.32-3.5-.51-5.24-.18-1.57-.39-3.13-.72-4.67a2 2 0 0 0-1.18-1.47c-1.11-.51-2.18-1.1-3.26-1.67q-6.79-3.6-13.5-7.33a5.23 5.23 0 0 1-2.34-2.7 38.1 38.1 0 0 1-2.66-13.5c-.08-3.07 0-6.14.15-9.21.1-1.63.2-3.26.42-4.88.41-3 .95-6 1.64-9a148 148 0 0 1 6.61-21c1.32-3.36 2.77-6.65 4.3-9.92q2.82-6 6.17-11.81c2.47-4.25 5.15-8.38 8-12.42s5.64-8 8.73-11.88c2.61-3.23 5.41-6.28 8.29-9.26 3.31-3.43 6.69-6.79 10.25-10q3.39-3 7-5.8a105.45 105.45 0 0 1 12.08-8 73.76 73.76 0 0 1 12.28-5.57c1.27-.43 2.53-.89 3.8-1.32a.91.91 0 0 0 .7-.82c0-.27.12-.53.13-.79.05-1.37.06-2.74.16-4.11s.09-3 .17-4.55a8.29 8.29 0 0 1 3.13-6 2.39 2.39 0 0 1 1.56-.58c.84 0 1.67.11 2.5.15 1.57.08 3.15.1 4.73.15 2.44.07 4.88.29 7.32.25a16.57 16.57 0 0 1 2.23.11 8.93 8.93 0 0 0 2.25 0m42.9 222.49c14.41-.09 28.81.19 43.21-.13 6.34-.14 12.7 0 19.05-.17s12.63 0 18.95-.18 12.88 0 19.32-.17c6.76-.2 13.53 0 20.3-.19 6.11-.19 12.22 0 18.33-.16 7.48-.17 15 0 22.45-.23 1.76-.05 3.52 0 5.28 0a4.28 4.28 0 0 0 .62 0 1.28 1.28 0 0 0 .79-1.32.4.4 0 0 0-.35-.24h-.63c-1.49 0-3 .09-4.46.14-5.13.14-10.26 0-15.38.16-8.59.21-17.17 0-25.76.19-6.73.18-13.47-.05-20.21.18-5.39.19-10.79 0-16.19.17-6.61.21-13.23 0-19.85.18-7.33.21-14.66 0-22 .18-8.37.21-16.75 0-25.13.17s-16.59.12-24.84.12a41.45 41.45 0 0 1-4.73-.14 1.4 1.4 0 0 1-1.32-1c-.76-1.84-1.46-3.71-2.14-5.59-1.22-3.33-2.46-6.65-3.63-10-.94-2.67-2-5.29-2.73-8-.08-.3-.19-.48-.51-.51s-.58-.11-.88-.12c-1.76-.07-3.51-.08-5.27-.15-3.93-.16-7.86 0-11.8-.18-4.79-.19-9.59 0-14.39-.18-5.24-.2-10.49 0-15.74-.18s-10.55 0-15.83-.18-10.31 0-15.47-.18c-5-.19-10 0-14.93-.18s-10.25 0-15.38-.18-10.25-.06-15.37-.16c-8-.15-15.93-.06-23.89-.07h-.63a.56.56 0 0 0-.59.54 3.14 3.14 0 0 0 0 .81c.39 2.68.6 5.37.82 8.07.19 2.46.52 4.91.94 7.34a36.66 36.66 0 0 0 2.65 9.62 1.16 1.16 0 0 0 1.19.81c4.32.05 8.64 0 13 .13 5.42.2 10.85 0 16.27.18 6.29.2 12.58 0 18.87.18s12.58 0 18.87.18c6.74.2 13.47 0 20.21.18 6.2.19 12.4 0 18.6.17 7.45.17 14.91.14 22.36.19 12.67.1 25.35 0 38 0m-27.56-292h-12.35A1.86 1.86 0 0 0 167 4c-.85 1-1.74 1.88-2.64 2.79-1.73 1.73-3.36 3.55-5 5.38a1.67 1.67 0 0 0-.47 1.21c0 1.46.18 2.91.24 4.37.1 2.43.36 4.86.45 7.3.06 1.6.2 3.21.26 4.81 0 1.07.06 2.15.17 3.21.25 2.46.31 4.93.46 7.4.1 1.63.2 3.26.27 4.9.05 1.16.06 2.32.17 3.48.24 2.61.28 5.23.49 7.84.09 1.18.13 2.37.21 3.56 0 .5.1 1 .18 1.51a4.18 4.18 0 0 0 .84 2c2 2.42 3.89 4.91 5.91 7.28 2.63 3.09 5.12 6.28 7.69 9.42 2.07 2.53 4.1 5.1 6.16 7.65 2.51 3.11 5 6.2 7.54 9.31a1.89 1.89 0 0 0 1.59.78c3.15 0 6.31 0 9.47.11a112.89 112.89 0 0 0 12.34-.1c.83-.07 1-.2.8-1-.24-1.17-.5-2.33-.73-3.5a15.12 15.12 0 0 1-.46-3c0-.58.11-.71.65-.76a15 15 0 0 1 2.22-.19c2.3.09 4.58-.23 6.88-.17a1.13 1.13 0 0 0 .93-.43c1.19-1.38 2.39-2.74 3.56-4.13q3.09-3.66 6.14-7.33l4.91-5.91 4.77-5.64 4.16-5a1.45 1.45 0 0 0 .35-1c.07-2.47.2-4.94.32-7.41.13-2.7.24-5.41.36-8.12s.25-5.23.36-7.85c.13-2.88.23-5.77.36-8.65.09-2.11 0-4.24 0-6.35a2.29 2.29 0 0 0-.4-1.34c-1.55-2.44-3.3-4.75-4.91-7.15a2.26 2.26 0 0 0-1.62-1c-1.51-.23-3-.14-4.54-.25-2.34-.18-4.7 0-7.06-.18-3.24-.18-6.49 0-9.74-.19-2.56-.16-5.12-.08-7.69-.15-3.18-.1-6.37-.23-9.56-.25-1.72 0-3.44-.23-5.18-.2a11.85 11.85 0 0 1-1.32-.15.71.71 0 0 1-.64-.43c-.11-.24-.23-.48-.33-.73a27.15 27.15 0 0 1-1.43-5.34c-.19-1-.19-1-1.26-1h-12.3M6.24 247.24v7.78a1.41 1.41 0 0 0 .76 1.37 9.36 9.36 0 0 0 3.74 1.11c2.17.36 4.35.65 6.53 1l6.89 1c2.26.32 4.53.61 6.8.95 1.29.19 1.3.21 1-1-.85-3.16-1.64-6.34-2.3-9.55-.58-2.8-1.09-5.61-1.51-8.43-.29-1.94-.49-3.89-.75-5.84-.17-1.27-.26-2.54-.4-3.81-.21-2-.43-4-.45-6.05-.06-5.52 0-11 0-16.55 0-.33 0-.66.06-1 .15-1.36.12-2.73.27-4.1.08-.71-.19-.9-.92-.76-5.12.95-10.23 1.95-15.29 3.2a12.56 12.56 0 0 0-4.11 1.7 1.17 1.17 0 0 0-.6 1c0 2.11-.1 4.22-.15 6.34q-.2 7.4.19 14.74c.22 3.86.08 7.74.21 11.62.06 1.76 0 3.52 0 5.28M49.78 40.09a4.92 4.92 0 0 0-1.71.38 20.77 20.77 0 0 0-8.32 6.43 1.42 1.42 0 0 0-.22 1.57 51.7 51.7 0 0 0 1.84 4.17c4.23 8.58 8.52 17.13 13 25.62 2.17 4.14 4.29 8.31 6.43 12.48 1.7 3.31 3.38 6.64 5.09 10 .81 1.56 1.66 3.09 2.5 4.64.19.34.39.67.59 1 .37.56.5.58.94.12a1.42 1.42 0 0 0 .12-.13c1.13-1.23 2.24-2.48 3.4-3.68 3.83-4 7.81-7.77 12-11.36 2.49-2.21 5.07-4.33 7.7-6.33 3.34-2.6 6.8-5 10.33-7.37.54-.37 1.08-.74 1.6-1.14s.37-.44 0-.75c-.17-.13-.35-.23-.53-.35-1.8-1.16-3.6-2.32-5.4-3.5L83.43 61.51l-21-13.89c-3.51-2.32-7-4.65-10.6-6.83a3.9 3.9 0 0 0-2-.7M378.5 48a1.94 1.94 0 0 0-.61-1.41 22.58 22.58 0 0 0-5.64-4.9 10.64 10.64 0 0 0-3.34-1.47 3.12 3.12 0 0 0-2.09.2 10.59 10.59 0 0 0-1.1.6c-2.07 1.31-4.14 2.6-6.18 3.94q-7 4.56-13.89 9.14l-19.93 13.13-10.52 6.94c-.8.52-1.61 1-2.4 1.55-.37.25-.37.42 0 .7s.9.68 1.38 1a176.08 176.08 0 0 1 16.18 12.07c3.44 2.9 6.8 5.89 10 9 2.31 2.25 4.56 4.56 6.83 6.84.31.32.63.64.95.94.54.51.63.5 1-.11l.12-.24c1.73-3.06 3.28-6.22 4.91-9.34 2.22-4.25 4.39-8.53 6.59-12.8s4.27-8.26 6.37-12.41q4.44-8.77 8.81-17.59c.85-1.7 1.64-3.44 2.35-5.21a2.72 2.72 0 0 0 .22-.61M235.82 92.79c.52.11.86.2 1.21.25 2.42.3 4.84.61 7.26.88 2.75.32 5.5.63 8.25.89s5.62.58 8.43.9c2.36.27 4.73.48 7.1.71a2.79 2.79 0 0 0 3.25-1.77 8.68 8.68 0 0 0 .6-1.4 28.16 28.16 0 0 0 1.16-7.25 37.25 37.25 0 0 0-.18-6.16 6.87 6.87 0 0 0-1.28-3.75 1.22 1.22 0 0 0-1.12-.56c-1.25.08-2.5.09-3.75.15-2.88.14-5.77.27-8.65.38-2.59.1-5.18.23-7.76.41a2.48 2.48 0 0 0-2.05.89c-.6.81-1.29 1.56-1.93 2.34q-4.28 5.24-8.53 10.46a27.71 27.71 0 0 0-2 2.67m-53.91-.05c0-.32-.2-.51-.35-.7q-1.5-1.91-3-3.78c-1.77-2.17-3.55-4.33-5.32-6.49-1.17-1.43-2.35-2.85-3.5-4.29a2.51 2.51 0 0 0-1.8-1c-.77-.08-1.54-.13-2.31-.19-2.61-.18-5.23-.32-7.85-.37-2.17-.05-4.34-.29-6.51-.23a2.19 2.19 0 0 1-.36 0 27.6 27.6 0 0 0-3.75-.14.87.87 0 0 0-.76.37 5.87 5.87 0 0 0-1.26 2.72 35.51 35.51 0 0 0-.3 4.72 39.94 39.94 0 0 0 .29 5.88 21.2 21.2 0 0 0 .93 4.53 5 5 0 0 0 1.6 2.19 1.63 1.63 0 0 0 1.23.42l2.75-.25 4.44-.47 4.17-.43 4.43-.47c1.36-.14 2.72-.26 4.08-.41l5.85-.65c1.74-.2 3.49-.36 5.23-.61a5.28 5.28 0 0 0 2.06-.43m232.75 120.95v-1.34c0-1.76.35-1.46-1.34-2.72a17.42 17.42 0 0 0-6.7-3.25c-3.51-.78-7-1.56-10.56-2.24l-4.12-.77c-.67-.11-.87.06-.89.74a6.53 6.53 0 0 0 0 1.17 47.8 47.8 0 0 1 .28 5.61c.08 5.3.07 10.6-.11 15.91-.07 2.2-.18 4.4-.42 6.59-.32 2.92-.73 5.83-1.19 8.74a172.3 172.3 0 0 1-3.61 17.28c0 .2-.13.4-.18.6-.11.48 0 .58.49.56a2.27 2.27 0 0 0 .35 0c1-.15 2-.32 3-.45 2.76-.39 5.53-.74 8.3-1.13l10.95-1.56a2.56 2.56 0 0 0 1.16-.41c.79-.54 1.55-1.11 2.34-1.65a1.14 1.14 0 0 0 .51-.88 62.89 62.89 0 0 0 .48-6.58c.14-2.82.25-5.64.36-8.47l.36-8.83c.12-3.15.25-6.31.35-9.46.07-2.47.21-4.94.23-7.41M340.93 256v7.24c0 .62.07.65.67.68.79 0 .87 0 .94-.59.24-1.78.24-3.57.31-5.35.09-2 .2-4 .27-6.07a21.79 21.79 0 0 1 .48-4.25 4.83 4.83 0 0 1 2.15-3.24c3.47-2.2 7.07-4.2 10.56-6.37 2.44-1.5 4.89-3 7.27-4.57a2.18 2.18 0 0 0 1-1.49c.47-2.21.25-4.45.45-6.67a20.22 20.22 0 0 0-.09-3.3c-.12-1.88-.06-3.75-.17-5.63-.16-2.56-.35-5.1-.56-7.65s-.56-5.15-1-7.7c-.81-5.06-1.79-10.08-3.1-15a122.53 122.53 0 0 0-4.2-13.04 149.8 149.8 0 0 0-7.28-15.83c-1.94-3.63-4-7.18-6.27-10.62a184 184 0 0 0-11.11-15.12c-2.6-3.19-5.3-6.28-8.13-9.26s-5.56-5.65-8.54-8.28c-2.21-2-4.45-3.86-6.78-5.67a106.41 106.41 0 0 0-15.43-10c-3.37-1.78-6.78-3.51-10.27-5.05a45.38 45.38 0 0 0-4.65-1.84 3.68 3.68 0 0 0-1.23-.19c-.47 0-.59.33-.68.7s.21.44.45.54a2.5 2.5 0 0 0 .25.09 111.92 111.92 0 0 1 15.24 7 127.26 127.26 0 0 1 12.44 8.08 138.47 138.47 0 0 1 13.28 11.13q3.33 3.16 6.47 6.55c2.27 2.45 4.46 5 6.6 7.52a118 118 0 0 1 7.41 9.86q4.71 7 8.81 14.31a139.74 139.74 0 0 1 6.76 14 135.88 135.88 0 0 1 5.61 16.31 126.47 126.47 0 0 1 3.14 14.9c.31 2.15.55 4.31.77 6.47.28 2.7.34 5.4.46 8.1.06 1.52 0 3-.09 4.56-.11 3-.38 5.87-.78 8.79-.24 1.72-.78 3.22-2.47 4.1q-5.35 2.85-10.61 5.85c-2.33 1.33-4.65 2.67-6.93 4.08a1.81 1.81 0 0 0-.89 1.26 23.51 23.51 0 0 0-.53 4.34v6.35M252.69 72.88a2.12 2.12 0 0 0 2.6-1 55.39 55.39 0 0 1 3.87-4.88 6.62 6.62 0 0 0 1.62-4c.11-1.21.07-2.43.26-3.64a3.2 3.2 0 0 0-.09-1.76.74.74 0 0 0-.76-.52c-.31 0-.4.34-.45.6a14 14 0 0 0-.23 1.58c-.11 1.48-.37 3-.38 4.44a1.43 1.43 0 0 1-.34.81c-1.3 1.95-2.63 3.88-4.05 5.76a33.22 33.22 0 0 0-2.05 2.69" class="cls-4"/>
      <path d="M206.2 14.83h26c2.25 0 4.5.09 6.75.14a2.66 2.66 0 0 1 2.24 1.1c1.7 2.25 3.31 4.56 4.8 7a5.16 5.16 0 0 1 .49 3.28 6.39 6.39 0 0 0-.09.75c.06 2.09-.15 4.16-.23 6.24-.09 2.51-.22 5-.34 7.51q-.15 3.24-.33 6.49c-.11 2.22-.25 4.43-.34 6.65 0 1.27-.17 2.53-.33 3.78a7.54 7.54 0 0 1-1.74 3.71c-2.65 3.36-5.43 6.61-8.17 9.9s-5.31 6.41-8 9.61q-2.07 2.46-4.19 4.86a16.76 16.76 0 0 1-1.19 1.15.9.9 0 0 1-.63.22h-22.91a3.32 3.32 0 0 1-2.77-1.27q-3.6-4.2-7.15-8.43c-2.41-2.87-4.83-5.72-7.21-8.62-2.17-2.66-4.44-5.24-6.51-8a6.71 6.71 0 0 1-1.35-3.41c-.19-1.93-.29-3.87-.38-5.81-.11-2.33-.24-4.66-.35-7s-.23-4.5-.33-6.74c-.11-2.59-.2-5.18-.35-7.76-.12-2-.09-4.05-.15-6.08a1.85 1.85 0 0 1 .36-1.18c1.53-2.13 3-4.29 4.52-6.43a3.3 3.3 0 0 1 3.07-1.49h1.1c9.53-.28 19-.09 25.71-.14m2.7 69.34h10.82a1.5 1.5 0 0 0 1.26-.53c1.05-1.25 2.13-2.48 3.17-3.73 2-2.41 4-4.83 5.95-7.25l5.9-7.18c1.79-2.17 3.57-4.35 5.37-6.51a2.36 2.36 0 0 0 .62-1.53c0-1.38.17-2.75.23-4.13s.09-2.53.16-3.8c.14-2.58.32-5.16.46-7.75.09-1.63.08-3.26.22-4.89.11-1.15.09-2.3.17-3.45.2-2.84.33-5.68.31-8.52a1.41 1.41 0 0 0-.21-.8 62.52 62.52 0 0 0-3.91-5.52 1.55 1.55 0 0 0-1.24-.6c-2.33 0-4.67-.12-7-.12-17 0-34-.24-51 .08a2.45 2.45 0 0 0-2.2 1.14q-1.6 2.37-3.26 4.73a2.18 2.18 0 0 0-.41 1.33c0 2.68.17 5.35.31 8q.17 3.36.35 6.74c.1 2 .23 4 .33 6 .11 2.36.25 4.72.34 7.08.05 1.49.23 3 .22 4.47a2 2 0 0 0 .45 1.34l3.53 4.2 4.47 5.4c1.37 1.67 2.73 3.36 4.11 5l5.21 6.31c1.06 1.28 2.15 2.53 3.21 3.81a1.61 1.61 0 0 0 1.4.6h10.66M50 40.63a1.3 1.3 0 0 1 .86.26c2.42 1.41 4.72 3 7 4.58 4.81 3.26 9.64 6.49 14.44 9.77 5.39 3.68 10.79 7.33 16.07 11.18.58.42 1.14.86 1.69 1.31s.54.65 0 1.14A8.92 8.92 0 0 1 88.53 70a158.81 158.81 0 0 0-14.23 9.58c-1.55 1.15-3 2.43-4.52 3.64a4.7 4.7 0 0 1-.5.38c-.63.4-.91.36-1.35-.25s-.87-1.28-1.3-1.93c-4.93-7.45-9.77-15-14.44-22.59-2.63-4.29-5.24-8.6-7.88-12.89-.86-1.4-1.06-1.32.47-2.54a19.3 19.3 0 0 1 4.93-2.68c.14 0 .29-.08.32-.09m327.06 8.27a3.11 3.11 0 0 1-.44 1.51c-1 1.81-1.93 3.63-2.92 5.43-1.15 2.12-2.33 4.23-3.49 6.34q-2.73 4.93-5.45 9.86c-1.34 2.42-2.67 4.85-4 7.28q-3.19 5.79-6.4 11.57-1.72 3.09-3.46 6.16c-.37.64-.78 1.27-1.2 1.88s-.64.69-1.32.24a20.42 20.42 0 0 1-2.52-2.17Q341 92.44 336 88a90.74 90.74 0 0 0-11-8.16 6.42 6.42 0 0 1-1.34-1c-.39-.44-.42-.56 0-1 .84-.81 1.69-1.61 2.56-2.37q2.91-2.47 5.78-4.93c2-1.65 3.94-3.27 5.91-4.92l5.95-5 7.14-5.93c2-1.66 4-3.34 6-5 3.28-2.72 6.52-5.48 9.93-8a1.76 1.76 0 0 1 2.2-.09 23.74 23.74 0 0 1 3.51 2.4 23.41 23.41 0 0 1 3.78 3.53 2.11 2.11 0 0 1 .67 1.35m20.55 170.29v-4.72c0-1.49-.16-3-.3-4.45a20.75 20.75 0 0 1 0-2.23c0-.62.15-.7.78-.63 2.43.29 4.8.87 7.18 1.38l1.39.32a13.16 13.16 0 0 1 5.74 3.14 1.52 1.52 0 0 1 .51 1.18c.07 2.71-.19 5.42-.26 8.12 0 1.22-.05 2.44-.14 3.66-.15 2.08-.07 4.17-.21 6.25-.1 1.61-.06 3.21-.15 4.82-.17 3.36-.22 6.72-.39 10.08a36.36 36.36 0 0 1-.25 4.54 2.4 2.4 0 0 1-.72 1.39 10.13 10.13 0 0 1-4.34 2.89 20.9 20.9 0 0 1-3.53.44c-.8.07-1.61.1-2.41.14-1.36 0-2.73.19-4.09.24a4.86 4.86 0 0 1-.54 0c-.94-.07-1.34-.53-1.22-1.47s.25-1.83.39-2.74c.32-2.08.65-4.17.85-6.27s.47-4.13.67-6.2c.16-1.78.25-3.56.4-5.34s.31-3.49.47-5.24v-.44c.06-3 .31-6.07.18-8.86" class="cls-4"/>
    </g>
  </g>
</svg>
