<?xml version="1.0" encoding="utf-8"?>
<!-- Generator: Adobe Illustrator 26.0.2, SVG Export Plug-In . SVG Version: 6.00 Build 0)  -->
<svg version="1.1" id="Isolation_Mode" xmlns="http://www.w3.org/2000/svg" xmlns:xlink="http://www.w3.org/1999/xlink" x="0px"
	 y="0px" viewBox="0 0 428.1 995.88" style="enable-background:new 0 0 428.1 995.88;" xml:space="preserve">
<style type="text/css">
	.st0{fill:#141211;}
</style>
<g>
	<polygon class="st0" points="163.99,11.49 151.92,0 131.1,10.63 151.5,23.08 	"/>
	<polygon class="st0" points="19.09,9.07 0.42,8.16 0,9.22 9.92,20.84 	"/>
	<polygon class="st0" points="55.63,6.57 48.1,37.03 73.84,32.63 	"/>
	<polygon class="st0" points="95.72,647.7 94.06,652.22 95.4,653.15 	"/>
	<polygon class="st0" points="177.13,168.45 169.47,171.77 176.57,173.48 	"/>
	<polygon class="st0" points="403.77,387.63 401.4,409.03 428.1,402.37 	"/>
	<polygon class="st0" points="203.14,193.98 197.22,185.55 192.88,195.58 	"/>
	<polygon class="st0" points="266.73,373.83 240.82,383.6 240.71,398.01 267.19,374.05 	"/>
	<polygon class="st0" points="267.35,563.95 269.07,548.95 264.23,549.27 261.8,555.78 	"/>
	<polygon class="st0" points="195.89,413.56 223.31,408.81 207.13,398.18 	"/>
	<polygon class="st0" points="271.04,664.69 270.08,667.83 281.62,667.24 276.61,662.87 	"/>
	<polygon class="st0" points="163.6,552.34 162.68,552.18 152.03,516.45 149.41,514.17 148.73,549.71 143.26,548.74 141.84,542.74 
		140.08,539.77 132.72,543.81 141.63,548.45 134.88,547.25 137.67,550.99 134.42,551.72 143.77,577.71 158.38,576.69 164.2,563.66 
		165.92,563.04 165.34,561.11 165.86,559.94 	"/>
	<polygon class="st0" points="279.06,572.01 277.81,573.83 277.23,572.84 262.46,573.42 253.65,598.87 253.99,599.38 280.77,600.14 
		280.23,583.11 303.62,576.06 289.16,566.14 	"/>
	<polygon class="st0" points="192.53,671.63 182.33,662.23 180.29,666.99 	"/>
	<polygon class="st0" points="212.55,710.55 242.13,702.59 227.71,678.13 	"/>
	<polygon class="st0" points="216.19,526.7 220.95,530.35 216.69,528.06 217.89,537.02 221.19,533.34 222.13,531.25 234.96,541.07 
		240.76,535.72 242.49,520.03 235.96,517.14 	"/>
	<polygon class="st0" points="61.58,334.33 66.43,340.71 68.55,337.17 	"/>
	<polygon class="st0" points="272.77,805.33 241.77,804.67 253.21,825.84 	"/>
	<polygon class="st0" points="218.5,514.9 227.43,508.34 211.66,486.91 209.79,486.23 	"/>
	<polygon class="st0" points="85.52,885.38 92.18,891.33 95.03,886.52 86.17,884.6 	"/>
	<polygon class="st0" points="203.82,863.4 203.94,861.26 199.32,856.01 198.4,856.34 201.76,869.03 202.5,868.84 201.05,883.33 
		210.68,882.28 210.01,868.41 	"/>
	<polygon class="st0" points="69.75,858.83 62.78,875.9 76.39,872.47 70.03,858.81 	"/>
	<polygon class="st0" points="135.76,224.87 129.17,224.56 134.4,233.85 	"/>
	<polygon class="st0" points="347.54,524.95 356.87,573.81 374.73,552.67 367.69,538.49 	"/>
	<polygon class="st0" points="86.97,666.14 75.76,639.65 77.9,669.45 	"/>
	<polygon class="st0" points="133.9,882.69 111.12,875.28 113.64,913.53 117.58,915.49 127.53,895.5 127.2,923.46 130.64,925.28 
		134.97,894.1 128.67,893.2 	"/>
	<polygon class="st0" points="176.9,125.41 177.41,121.56 130.52,110.99 129.94,136.61 142.96,144.17 	"/>
	<polygon class="st0" points="167.82,88.92 194.19,79.08 166.33,55.38 163.4,55.83 	"/>
	<polygon class="st0" points="224.12,133.05 217.91,141.54 226.57,138.99 	"/>
	<polygon class="st0" points="174.55,206.42 126.63,244.89 143.58,298.05 151.97,300.3 152.23,300.62 152.27,300.38 170.44,305.25 
		205.2,244 204.26,240.46 184.78,210.15 	"/>
	<polygon class="st0" points="233.24,449.26 246.03,459.36 235,444.93 247.86,413.14 208.28,429.72 231.47,453.65 	"/>
	<polygon class="st0" points="332.78,188.96 307.31,179.56 314.87,214.46 	"/>
	<polygon class="st0" points="217.86,366.66 267.65,364.48 281.88,330.56 270.62,320.19 265.76,284.09 265.11,284.5 257.97,316.97 
		208.79,321.66 193.11,327.65 	"/>
	<polygon class="st0" points="103.61,594.1 110.88,600.64 124.03,597.13 105.48,587.35 	"/>
	<polygon class="st0" points="14.58,971.02 21.85,977.57 35,974.05 16.45,964.27 	"/>
	<polygon class="st0" points="230.12,628.38 228.53,618.11 220.54,614.76 216.53,617.62 	"/>
	<polygon class="st0" points="202.83,581.17 197.02,582.69 192.83,573.48 174.07,565.09 150.85,593.74 151.41,583.41 137.08,596.5 
		133.1,608.14 137.6,610.09 121.51,629.93 133.2,629.68 129.92,639.47 165.31,652.48 166.41,657.52 172.72,658.16 174.36,655.81 
		196.46,663.93 205.56,645.3 205.37,668.17 205.99,668.19 220.44,629.15 211.31,614.16 206.11,602.71 226.51,613.04 220.21,585.07 	
		"/>
	<polygon class="st0" points="320.05,368.47 311.65,346.91 283.12,364.44 284.19,402.56 	"/>
	<polygon class="st0" points="75.62,592.09 64.43,600.7 68.85,603.57 	"/>
	<polygon class="st0" points="280.96,488.66 261.62,476.7 261.93,473.35 257.68,468.15 255.83,473.13 247.07,467.71 245.56,514.4 
		259.17,517.64 283.46,502.47 	"/>
	<polygon class="st0" points="256.06,670.58 242.64,734.07 243.34,734.23 268.82,692.58 260.84,669.7 	"/>
	<polygon class="st0" points="51.12,916.03 45.91,982.2 46.98,982.46 70.53,949.5 58.39,914.69 	"/>
	<polygon class="st0" points="252.49,869.47 281.82,876.78 279.06,840.02 	"/>
	<polygon class="st0" points="314.6,706.36 313.24,701.96 306.91,707.56 305.89,706.44 299.47,704.28 286.53,717.04 298.95,748.15 
		299.67,748.33 324.59,726.9 307.53,708.24 	"/>
	<polygon class="st0" points="23.85,973.91 24.79,973.91 22.15,967.92 	"/>
	<polygon class="st0" points="140.29,905.83 185.75,967.27 201.32,931.73 166.69,897.18 	"/>
	<path class="st0" d="M121.3,829.77l18.49-41.27l47.61,23l12.71-42.4l-25.29-24.13l7.9-14.29l-34.04,2.51l-24.52-40.4l-8.15,4.41
		l7.03,34.18l14.01,8.44l16.52,18.13l-11.97,23.58l-21.74-8.21l-12.42,14.39l-19.97-19.29l-10.42-3.3l34.91-15.95l-2.46-38.06
		l-28.6-25.57l0.2-3.44l-3.27,0.7l-0.89-0.79l-7.4,2.56l-19.59,4.18l1.74,2l-24.2,8.38L14.74,678.5l7.57-4.6l10.58,6.45l0.32-14.78
		l12.31-14.7l-1.55-40.81l8.29-12.65l1.14,6.06l5.93,2.66l13.91-32.91l16.67,27.5l26.28-123.29l-70.8,14.01L34.6,509.51l8.63,14.23
		l-2.84,14.71l-10.14,6.32l3.73-12.77l-10.05-16.27l3.21-14.74l2.2,6.26l35.34-65.07l-2.61-3.37l11.71-24.25l-2.95-4.29l4.46-5.8
		l13.44-4.43l4.68,38.96L109,427.53l6.52,9.58l1.07,42.25l10.44,9l-4.27,1.21l5.11,5.34l16.28,0.05l-6.99-4.1l91.05-32.15
		l-82.1-34.25l4.61-12.08l-23.56,1.78l6.07-4.47l-2.52-5.33l24.43-13.13l-27.77,6.07l-9.71-20.49l-19.44-7.49l4.34-5.26l29.13-14.33
		l-7.57-3.68l12.5-10.03l-5.73-12.49l-9.28,21.3l-14.28-6.93l18.51-36.36l-56.1,18.11l-16.91-8.21l-0.14,1.42l39.59,47.51
		l-37.88,6.82l-14.71-2.34l-2.72-3.96l2.52-8.63l-5.46-8.84l4.66-9.16l9.28,8.01l0.06-0.8l4.1,24.9l7.99-24.98L48.64,334l1.86-22.94
		l4.1-8.05l15.63,10.87l8.38-6.77l3.18,6.51l3.13-4.14l-3.84-4.36l10.73-8.66l21.44,8.85l15.66-15.94l-15.32-10.5l10.57-8.53
		l0.39-3.5l-7.17-33.81l-8.12-6.79l-10.99,3.53l26.85-34.22l-44.38-3.44l2.81-5.1l14.47,0.21l3.59-5.67l-8.87-7.01l34.97-22.32
		l-8.01-21.8l1.8,0.03l4.73-22.57l-36.64,7.96l-0.05,0.1l16.92,11.91l-15.99,5.87l0.69-1.93l-27.81-1.76l-5.97-19.73l-12.4,9.94
		l1.34-44.58l12.12,5.66l15.51-20.13L54.59,46.29l-21.75,16.1l-12.3-19.15L10.3,39.5l-2.93,2.35l-7.37-0.27v954.23l0.04,0.07
		l19.17-89.91l11.82-21.97l-1-0.65l6.63-12.32l0.43-0.5l4.87-0.52l-0.26-4.19l12.97,1.71l-1.69-5.74l15.4-3.95l7.78-34.79
		l7.88,15.25l1.24,0.3l4.02-3.89l3.92,33.27l50.74,13.14l8.35-6.1l-0.71-24.93l9.24-14.05l0.57,1.08l-5.18,6.46l1.64,2.99
		l-0.53,1.17l2.71,3.51l0.2-0.33l14.07,25.69l19.72-21.14l-13.29-12.96l-5.68-15.87l3.7-6.06l-7.14-4.57l-0.2,0.45l-1.39-3.89
		l-11.01,0.24l-4.85-6.28l-3.01,6.45l-2.55,0.06l1.35,2.53l-10.13,21.68l-43.82-9.04l7.18-6.95L121.3,829.77z M57.44,549.54
		l-11.47,14.54L51,590.8l-4.39-0.74l3.21-4.75l-5.99-26.51L57.44,549.54z M87.37,388.74l0.19,1.58l-0.94-0.59L87.37,388.74z
		 M89.71,135.95l2.71,38.34l-12.74-10.08L89.71,135.95z M49.97,227.79l9.14,3.56l11.62-21.05l13.86,23.9l-33.28,10.7l-0.33,5.41
		L21.5,230.75L49.97,227.79z M38.96,776.75l-1.8-2.91l-2.02,2.31l-4.59-0.73l22.63-13.89l-0.22-0.59l-18.6-8.55l2.58-4.8
		l17.99,14.03l-7.19,16.54L38.96,776.75z M45.87,804.67l2.09-3.88l15.85-1.64l2.13,4.13L45.87,804.67z M69.91,772.1l-2.54-2.58
		l8.12-3.71L69.91,772.1z"/>
	<polygon class="st0" points="54.47,904.77 23.47,904.11 34.91,925.28 	"/>
	<polygon class="st0" points="4.67,960.37 33.29,950.64 11.08,921.23 	"/>
</g>
</svg>
