<svg xmlns="http://www.w3.org/2000/svg" xml:space="preserve" id="Isolation_Mode" x="0" y="0" version="1.1" viewBox="0 0 995.9 428.1">
  <style>
    .st0{fill:#141211}
  </style>
  <path d="M11.5 264.1 0 276.2 10.6 297l12.5-20.4zM9.1 409l-.9 18.7 1 .4 11.6-9.9zm-2.5-36.5L37 380l-4.4-25.7zm641.1-40.1 4.5 1.6 1-1.3zM168.4 251l3.4 7.6 1.7-7.1zM387.6 24.3l21.4 2.4L402.4 0zM194 225l-8.4 5.9 10 4.3zm179.8-63.6 9.8 25.9 14.4.1-24-26.5zm190.2-.6-15-1.8.3 4.9 6.5 2.4zm-150.4 71.4-4.8-27.4-10.6 16.2zm251.1-75.1 3.1.9-.6-11.5-4.3 5zM552.3 264.5l-.1.9-35.7 10.7-2.3 2.6 35.5.7-1 5.4-6 1.5-2.9 1.7 4 7.4 4.7-8.9-1.3 6.7 3.8-2.8.7 3.3 26-9.4-1-14.6-13-5.8-.7-1.7-1.9.6-1.2-.6zM572 149l1.8 1.3-1 .6.6 14.7 25.5 8.9.5-.4.7-26.8-17 .6-7-23.4-10 14.4zm99.6 86.6-9.4 10.2 4.8 2zm38.9-20-7.9-29.6-24.5 14.4zm-183.8-3.7 3.6-4.7-2.2 4.2 8.9-1.2-3.7-3.3-2.1-.9 9.9-12.9-5.4-5.8-15.7-1.7-2.9 6.5zM334.3 366.5l6.4-4.8-3.5-2.2zm471-211.2-.6 31 21.1-11.4zm-290.4 54.3-6.6-8.9-21.4 15.7-.7 1.9zm370.5 133 5.9-6.7-4.8-2.8-1.9 8.8zm-22-118.3-2.1-.1-5.3 4.6.3.9 12.7-3.4-.2-.7 14.5 1.5-1-9.7-13.9.7zm-4.6 134.1 17.1 6.9-3.4-13.6-13.7 6.4zm-633.9-66.1-.3 6.6 9.3-5.2zM525 80.6l48.8-9.4-21.1-17.8-14.2 7zm141.1 260.5-26.4 11.2 29.8-2.1zm216.6-46.9-7.4 22.8 38.2-2.5 2-4-20-9.9 28 .3 1.8-3.4-31.2-4.4-.9 6.3zm-757.3-43-3.8-.5-10.6 46.9 25.6.6 7.6-13.1zm-36.5 9.1-9.8-26.4-23.7 27.9.4 2.9zm44.2-56.3 8.4 6.2-2.5-8.7zm73.3 49.6 38.5 47.9 53.1-17 2.3-8.4.3-.2-.2-.1 4.8-18.1-61.2-34.8-3.5.9-30.4 19.5zm242.9-58.7 10.1-12.8-14.5 11-31.8-12.9 16.6 39.6 23.9-23.2zM189 95.3l-9.4 25.5 34.9-7.6zm177.7 114.9-2.2-49.7-33.9-14.3-10.4 11.3-36.1 4.8.4.7 32.5 7.1 4.7 49.2 5.9 15.7zm227.4 114.3 6.5-7.3-3.5-13.1-9.8 18.5zm376.9 89 6.6-7.3-3.6-13.1-9.7 18.5zM628.4 198l-10.3 1.6-3.3 8 2.8 4z" class="st0"/>
  <path d="m581.2 225.3 1.5 5.8-9.2 4.2-8.4 18.7 28.6 23.2-10.3-.5 13.1 14.3 11.6 4 2-4.5 19.8 16.1-.2-11.7 9.8 3.3 13-35.4 5-1.1.7-6.3-2.4-1.7 8.1-22.1-18.6-9.1 22.9.2v-.6l-39-14.4-15 9.1-11.5 5.2 10.3-20.4-27.9 6.3zM368.5 108.1l-21.6 8.4 17.5 28.5 38.2-1.1zm223.6 244.4 8.6 11.2 2.9-4.5zM488.7 147.1l-12 19.4-3.3-.3-5.3 4.2 5 1.9-5.4 8.7 46.7 1.5 3.2-13.6-15.1-24.3zM670.6 172l63.5 13.5.1-.7-41.6-25.5-22.9 8zM916 377l66.2 5.2.3-1.1-33-23.5-34.8 12.1zm-46.5-201.4 7.3-29.3L840 149zm-163.1-62.1-4.4 1.4 5.6 6.3-1.2 1-2.1 6.4 12.7 13 31.2-12.5.1-.7-21.4-24.9-18.7 17.1zm267.5 290.7v-.9l-6 2.7zm-68.1-116.4 61.5-45.4-35.6-15.6-34.5 34.6z" class="st0"/>
  <path d="m829.8 306.8-41.3-18.5 23-47.6-42.4-12.7-24.1 25.3-14.3-7.9 2.5 34-40.4 24.5 4.4 8.2 34.2-7 8.4-14 18.1-16.5 23.6 12-8.2 21.7 14.4 12.4-19.3 20-3.3 10.4-16-34.9-38.1 2.5-25.6 28.6-3.4-.2.7 3.3-.8.9 2.6 7.4 4.2 19.6 2-1.7 8.4 24.2-20.6 12.8-4.6-7.6 6.5-10.6-14.8-.3-14.7-12.3-40.8 1.5-12.7-8.3 6.1-1.1 2.7-5.9-32.9-13.9 27.5-16.7-123.3-26.3 14 70.8 18.1 10.8 14.2-8.6 14.7 2.8 6.3 10.1-12.8-3.7-16.3 10.1L501 401l6.3-2.2-65.1-35.3-3.4 2.6-24.2-11.7-4.3 3-5.8-4.5-4.4-13.4 39-4.7-11.5-15.6 9.6-6.5 42.2-1.1 9-10.4 1.2 4.3 5.3-5.1v-16.3l-4.1 7-32.1-91.1-34.2 82-12.1-4.6 1.8 23.6-4.5-6.1-5.3 2.5-13.2-24.4 6.1 27.8-20.5 9.7-7.5 19.4-5.3-4.3-14.3-29.1-3.7 7.6-10-12.5-12.5 5.7 21.3 9.3-6.9 14.3-36.4-18.5 18.1 56.1-8.2 16.9 1.4.1 47.5-39.6 6.8 37.9-2.3 14.7-4 2.7-8.6-2.5-8.8 5.5-9.2-4.7 8-9.3-.8-.1 24.9-4.1-25-8-7.4 11.5-22.9-1.9-8-4.1 10.9-15.6-6.8-8.4 6.5-3.2-4.1-3.1-4.4 3.8-8.7-10.7 8.9-21.4-15.9-15.7-10.5 15.3-8.5-10.6-3.5-.4-33.8 7.2-6.8 8.1 3.5 11-34.2-26.8-3.4 44.4-5.1-2.8.2-14.5-5.7-3.6-7 8.9-22.3-35-21.8 8v-1.8l-22.6-4.7 8 36.6h.1l11.9-16.9 5.9 16-1.9-.7-1.8 27.8-19.7 6 9.9 12.4-44.6-1.3 5.7-12.1-20.1-15.5-14.9 19.4 16.1 21.8-19.2 12.3-3.7 10.2 2.3 2.9-.3 7.4h954.3L906 408.9l-22-11.8-.7 1-12.3-6.6-.5-.4-.5-4.9-4.2.3 1.7-13-5.7 1.7-4-15.4L823 352l15.2-7.9.3-1.2-3.9-4 33.3-3.9 13.1-50.7-6.1-8.4-24.9.7-14-9.2 1.1-.6 6.5 5.2 3-1.6 1.2.5 3.5-2.7-.3-.2 25.7-14.1-21.1-19.7-13 13.3-15.9 5.7-6.1-3.7-4.6 7.1.5.2-3.9 1.4.2 11-6.3 4.9 6.5 3 .1 2.5 2.5-1.4 21.7 10.1-9 43.8-7-7.2 8.5-18.1zm-280.3 63.9 14.5 11.5 26.7-5-.7 4.4-4.8-3.2-26.5 6-9.2-13.7zm-160.8-30 1.6-.2-.6.9-1-.7zm-252.8-2.3 38.3-2.7-10.1 12.7-28.2-10zm91.9 39.7 3.6-9.1-21.1-11.6 23.9-13.9 10.7 33.3 5.4.3-19.6 29.5-2.9-28.5zm549 11-2.9 1.8 2.3 2-.7 4.6-13.9-22.6-.6.2-8.5 18.6-4.8-2.6 14-18 16.5 7.2-1.4 8.8zm27.9-6.9-3.9-2.1-1.6-15.9 4.1-2.1 1.4 20.1zm-32.6-24-2.6 2.5-3.7-8.1 6.3 5.6z" class="st0"/>
  <path d="m904.8 373.6-.7 31 21.2-11.4zm55.6 49.8-9.8-28.6-29.4 22.2z" class="st0"/>
</svg>
