<?xml version="1.0" encoding="utf-8"?>
<!-- Generator: Adobe Illustrator 26.0.1, SVG Export Plug-In . SVG Version: 6.00 Build 0)  -->
<svg version="1.1" id="Isolation_Mode" xmlns="http://www.w3.org/2000/svg" xmlns:xlink="http://www.w3.org/1999/xlink" x="0px"
	 y="0px" viewBox="0 0 428.1 995.9" style="enable-background:new 0 0 428.1 995.9;" xml:space="preserve">
<style type="text/css">
	.st0{fill:#141211;}
</style>
<path class="st0" d="M164,11.5L151.9,0l-20.8,10.6l20.4,12.4L164,11.5z M81.3,14l-18.7-0.9l-0.4,1.1l9.9,11.6L81.3,14z M117.8,11.5
	L110.3,42l25.7-4.4L117.8,11.5z M95.7,647.7l-1.7,4.5l1.3,0.9L95.7,647.7z M177.1,168.5l-7.7,3.3l7.1,1.7L177.1,168.5z M403.8,387.6
	l-2.4,21.4l26.7-6.7L403.8,387.6z M203.1,194l-5.9-8.4l-4.3,10L203.1,194z M266.7,373.8l-25.9,9.8l-0.1,14.4l26.5-24L266.7,373.8z
	 M267.4,564l1.7-15l-4.8,0.3l-2.4,6.5L267.4,564z M195.9,413.6l27.4-4.8l-16.2-10.6L195.9,413.6z M271,664.7l-1,3.1l11.5-0.6l-5-4.4
	L271,664.7z M163.6,552.3l-0.9-0.2L152,516.5l-2.6-2.3l-0.7,35.5l-5.5-1l-1.4-6l-1.8-3l-7.4,4l8.9,4.6l-6.8-1.2l2.8,3.7l-3.2,0.7
	l9.4,26l14.6-1l5.8-13l1.7-0.6l-0.6-1.9l0.5-1.2L163.6,552.3z M279.1,572l-1.2,1.8l-0.6-1l-14.8,0.6l-8.8,25.5l0.3,0.5l26.8,0.8
	l-0.5-17l23.4-7l-14.5-9.9L279.1,572z M192.5,671.6l-10.2-9.4l-2,4.8L192.5,671.6z M212.6,710.5l29.6-8l-14.4-24.5L212.6,710.5z
	 M216.2,526.7l4.8,3.7l-4.3-2.3l1.2,9l3.3-3.7l0.9-2.1l12.8,9.8l5.8-5.3l1.7-15.7l-6.5-2.9L216.2,526.7z M61.6,334.3l4.8,6.4
	l2.1-3.5L61.6,334.3z M272.8,805.3l-31-0.7l11.4,21.2L272.8,805.3z M218.5,514.9l8.9-6.6l-15.8-21.4l-1.9-0.7L218.5,514.9z
	 M85.5,885.4l6.7,6l2.8-4.8l-8.9-1.9L85.5,885.4z M203.8,863.4l0.1-2.1l-4.6-5.2l-0.9,0.3l3.4,12.7l0.7-0.2l-1.4,14.5l9.6-1
	l-0.7-13.9L203.8,863.4z M69.8,858.8l-7,17.1l13.6-3.4L70,858.8L69.8,858.8z M135.8,224.9l-6.6-0.3l5.2,9.3L135.8,224.9z
	 M347.5,524.9l9.3,48.9l17.9-21.1l-7-14.2L347.5,524.9z M87,666.1l-11.2-26.5l2.1,29.8L87,666.1z M133.9,882.7l-22.8-7.4l2.5,38.2
	l3.9,2l9.9-20l-0.3,28l3.4,1.8l4.3-31.2l-6.3-0.9L133.9,882.7z M176.9,125.4l0.5-3.8L130.5,111l-0.6,25.6l13,7.6L176.9,125.4z
	 M167.8,88.9l26.4-9.8l-27.9-23.7l-2.9,0.5L167.8,88.9z M224.1,133l-6.2,8.5l8.7-2.6L224.1,133z M174.5,206.4l-47.9,38.5l16.9,53.2
	l8.4,2.2l0.3,0.3l0-0.2l18.2,4.9l34.8-61.2l-0.9-3.5l-19.5-30.3L174.5,206.4z M233.2,449.3l12.8,10.1l-11-14.4l12.9-31.8l-39.6,16.6
	l23.2,23.9L233.2,449.3z M332.8,189l-25.5-9.4l7.6,34.9L332.8,189z M217.9,366.7l49.8-2.2l14.2-33.9l-11.3-10.4l-4.9-36.1l-0.6,0.4
	L258,317l-49.2,4.7l-15.7,6L217.9,366.7z M103.6,594.1l7.3,6.5l13.2-3.5l-18.6-9.8L103.6,594.1z M45.6,971l7.3,6.5L66,974l-18.5-9.8
	L45.6,971z M230.1,628.4l-1.6-10.3l-8-3.3l-4,2.9L230.1,628.4z M61.7,841.9l-47.9,38.5l-5.9,60.4L0,995.9l45.8,0.1l46.5-116.5
	l-0.9-3.5l-19.5-30.3L61.7,841.9z M32,35.7l29.6-8L47.2,3.3L32,35.7z"/>
<path class="st0" d="M202.8,581.2l-5.8,1.5l-4.2-9.2l-18.8-8.4l-23.2,28.7l0.6-10.3l-14.3,13.1l-4,11.6l4.5,2l-16.1,19.8l11.7-0.2
	l-3.3,9.8l35.4,13l1.1,5l6.3,0.6l1.6-2.3l22.1,8.1l9.1-18.6l-0.2,22.9l0.6,0l14.4-39l-9.1-15l-5.2-11.5l20.4,10.3l-6.3-28
	L202.8,581.2z M320,368.5l-8.4-21.6l-28.5,17.5l1.1,38.1L320,368.5z M75.6,592.1l-11.2,8.6l4.4,2.9L75.6,592.1z M281,488.7l-19.3-12
	l0.3-3.4l-4.2-5.2l-1.9,5l-8.8-5.4l-1.5,46.7l13.6,3.2l24.3-15.2L281,488.7z M256.1,670.6l-13.4,63.5l0.7,0.2l25.5-41.7l-8-22.9
	L256.1,670.6z M83.2,920.3L78,986.5l1.1,0.3l23.5-33l-12.1-34.8L83.2,920.3z M252.5,869.5l29.3,7.3l-2.8-36.8L252.5,869.5z
	 M314.6,706.4l-1.4-4.4l-6.3,5.6l-1-1.1l-6.4-2.2L286.5,717l12.4,31.1l0.7,0.2l24.9-21.4l-17.1-18.7L314.6,706.4z M23.9,973.9h0.9
	l-2.6-6L23.9,973.9z M140.3,905.8l45.5,61.4l15.6-35.5l-34.6-34.5L140.3,905.8z"/>
<path class="st0" d="M121.3,829.8l18.5-41.3l47.6,23l12.7-42.4L174.8,745l7.9-14.3l-34,2.5l-24.5-40.4l-8.2,4.4l7,34.2l14,8.4
	l16.5,18.1l-12,23.6l-21.7-8.2l-12.4,14.4l-20-19.3L77,765.1l34.9-16l-2.5-38.1l-28.6-25.6l0.2-3.4l-3.3,0.7l-0.9-0.8l-7.4,2.6
	l-19.6,4.2l1.7,2l-24.2,8.4l-12.8-20.6l7.6-4.6l10.6,6.5l0.3-14.8l12.3-14.7L44,610.1l8.3-12.7l1.1,6.1l5.9,2.7l13.9-32.9l16.7,27.5
	l26.3-123.3l-70.8,14l-10.8,18.1l8.6,14.2l-2.8,14.7l-10.1,6.3L34,532l-10-16.3l3.2-14.7l2.2,6.3l35.3-65.1l-2.6-3.4l11.7-24.2
	l-2.9-4.3l4.5-5.8l13.4-4.4l4.7,39l15.6-11.5l6.5,9.6l1.1,42.2l10.4,9l-4.3,1.2l5.1,5.3l16.3,0l-7-4.1l91.1-32.1l-82.1-34.2
	l4.6-12.1l-23.6,1.8l6.1-4.5l-2.5-5.3l24.4-13.1l-27.8,6.1l-9.7-20.5l-19.4-7.5l4.3-5.3l29.1-14.3l-7.6-3.7l12.5-10l-5.7-12.5
	l-9.3,21.3l-14.3-6.9l18.5-36.4l-56.1,18.1l-16.9-8.2l-0.1,1.4l39.6,47.5l-37.9,6.8l-14.7-2.3l-2.7-4l2.5-8.6l-5.5-8.8l4.7-9.2
	l9.3,8l0.1-0.8l4.1,24.9l8-25L48.6,334l1.9-22.9l4.1-8l15.6,10.9l8.4-6.8l3.2,6.5l3.1-4.1l-3.8-4.4l10.7-8.7l21.4,8.9l15.7-15.9
	l-15.3-10.5l10.6-8.5l0.4-3.5l-7.2-33.8l-8.1-6.8l-11,3.5l26.8-34.2l-44.4-3.4l2.8-5.1l14.5,0.2l3.6-5.7l-8.9-7l35-22.3l-8-21.8
	l1.8,0l4.7-22.6l-36.6,8l-0.1,0.1l16.9,11.9l-16,5.9l0.7-1.9L63.4,130l-6-19.7L45,120.2l1.3-44.6l12.1,5.7L74,61.2L54.6,46.3
	L32.8,62.4L20.8,0H0v995.8l0,0.1L19.2,906L31,884l-1-0.7l6.6-12.3l0.4-0.5L42,870l-0.3-4.2l13,1.7l-1.7-5.7l15.4-4l7.8-34.8
	l7.9,15.2l1.2,0.3l4-3.9l3.9,33.3l50.7,13.1l8.4-6.1l-0.7-24.9l9.2-14l0.6,1.1l-5.2,6.5l1.6,3l-0.5,1.2l2.7,3.5l0.2-0.3l14.1,25.7
	l19.7-21.1l-13.3-13l-5.7-15.9l3.7-6.1l-7.1-4.6l-0.2,0.5l-1.4-3.9l-11,0.2l-4.9-6.3l-3,6.5l-2.6,0.1l1.4,2.5l-10.1,21.7l-43.8-9
	l7.2-7L121.3,829.8L121.3,829.8z M57.4,549.5L46,564.1l5,26.7l-4.4-0.7l3.2-4.8l-6-26.5C43.8,558.8,57.4,549.5,57.4,549.5z
	 M87.4,388.7l0.2,1.6l-0.9-0.6L87.4,388.7z M89.7,135.9l2.7,38.3l-12.7-10.1L89.7,135.9z M50,227.8l9.1,3.6l11.6-21.1l13.9,23.9
	l-33.3,10.7l-0.3,5.4l-29.5-19.6L50,227.8L50,227.8z M39,776.8l-1.8-2.9l-2,2.3l-4.6-0.7l22.6-13.9l-0.2-0.6l-18.6-8.5l2.6-4.8
	l18,14l-7.2,16.5L39,776.8L39,776.8z M45.9,804.7l2.1-3.9l15.8-1.6l2.1,4.1C65.9,803.3,45.9,804.7,45.9,804.7z M69.9,772.1l-2.5-2.6
	l8.1-3.7L69.9,772.1L69.9,772.1z"/>
<path class="st0" d="M54.5,904.8l-31-0.7l11.4,21.2L54.5,904.8z M4.7,960.4l28.6-9.7l-22.2-29.4L4.7,960.4z"/>
</svg>
